<mxfile host="app.diagrams.net" modified="2023-11-21T14:58:05.126Z" agent="Mozilla/5.0 (Windows NT 10.0; Win64; x64) AppleWebKit/537.36 (KHTML, like Gecko) Chrome/119.0.0.0 Safari/537.36 Edg/119.0.0.0" etag="IHx28XQMG6mvnnJyMi5u" version="22.1.3" type="device" pages="2">
  <diagram name="Страница — 1" id="o3sYmgAIau1fM3dsohi6">
    <mxGraphModel dx="2320" dy="1200" grid="1" gridSize="10" guides="1" tooltips="1" connect="1" arrows="1" fold="1" page="1" pageScale="1" pageWidth="3300" pageHeight="2339" math="0" shadow="0">
      <root>
        <mxCell id="0" />
        <mxCell id="1" parent="0" />
        <mxCell id="V4f_2r2WSFjoRzTgrVU7-42" value="" style="shape=image;imageAspect=0;aspect=fixed;verticalLabelPosition=bottom;verticalAlign=top;image=data:image/png,iVBORw0KGgoAAAANSUhEUgAABDAAAAPBCAYAAAAI/VokAAAAAXNSR0IArs4c6QAACdF0RVh0bXhmaWxlACUzQ214ZmlsZSUyMGhvc3QlM0QlMjJhcHAuZGlhZ3JhbXMubmV0JTIyJTIwbW9kaWZpZWQlM0QlMjIyMDIzLTExLTIxVDE0JTNBNTQlM0ExMC41MzdaJTIyJTIwYWdlbnQlM0QlMjJNb3ppbGxhJTJGNS4wJTIwKFdpbmRvd3MlMjBOVCUyMDEwLjAlM0IlMjBXaW42NCUzQiUyMHg2NCklMjBBcHBsZVdlYktpdCUyRjUzNy4zNiUyMChLSFRNTCUyQyUyMGxpa2UlMjBHZWNrbyklMjBDaHJvbWUlMkYxMTkuMC4wLjAlMjBTYWZhcmklMkY1MzcuMzYlMjBFZGclMkYxMTkuMC4wLjAlMjIlMjBldGFnJTNEJTIyMzI5SXhaYUxXNzBIRFpNdmtCd1olMjIlMjB2ZXJzaW9uJTNEJTIyMjIuMS4zJTIyJTIwdHlwZSUzRCUyMmRldmljZSUyMiUyMHBhZ2VzJTNEJTIyMiUyMiUzRSUzQ2RpYWdyYW0lMjBpZCUzRCUyMlkweTNjS3YtNEEyYUlNSElhMGtpJTIyJTIwbmFtZSUzRCUyMlBhZ2UtMSUyMiUzRTdadGRtNW80RklCJTJGRFpmVGh4QkF2VVJsUHRxcSUyQnpoTXU3ZFVNc3F6U0Z5TTFlbXZid2dCbzhsMDZUWkFkZW9GSDRjUTREMG55VG5KMFlDajllRXVDemVyQ1k1UVlsaG1kRERnMkxBczJEY2gzZVdTbDBKaXVWYXZrQ3l6T0NwazRDaDRqTDhoTGpTNWRCZEhhSHRTa0dDY2tIaHpLbHpnTkVVTGNpSUxzd3p2VDRzOTQlMkJUMHFadHdpU1RCNHlKTVpPbm5PQ0tyUXRwM3pLUDhIc1hMVmZsa1lQSXI2N0FzekFYYlZSamh2U0NDdmdGSEdjYWtPRm9mUmlqSjZaVmNpdnR1WDdsYXZWaUdVbExuQnF1NDRXdVk3UGkzOGZjaUwlMkJYSFpuaVhSaWd2Ynhwd3VGJTJGRkJEMXV3a1YlMkJkVSUyRjFTMlVyc2s3b0dhQ0g4dlA1SzMxRkdVRUhRY1RmNXc3aE5TTFpDeTNDcjk0NEpTMXVIamZRNVlMOUVUWXdlMXk0RWtnUHlwSWgxJTJGQ3lxdjRJZ1I1d0Rtb204THFZVk1iM0swenNDMkJTbmJlRHBPOW9acklsR2Y0SGpYQ0NNeXFKMEhPNFMlMkJnTEQ1OXhTbmdmQ0t4VzdRazB4czZWMkQwOSUyQm5SbmVvRUJQWWtqJTJGU3p5STFncFRsRk9LazZTTTFHWXhNdVVuaTRvTEVUbHd4eFNUTHR5ajE5WXgxR1VQMGFwblZQOWRhWUlWNkVIcUVNTnZRczJZVGlvUVE2YWpabHdYMkxuUFFYM3N6bXpYOU9ndUR5MkhSYmJua0VKOVVVSllGdWZ5UzIyN1RGSm4yMDlmbHhVTlNncXBFaGNCdlJMUm8lMkJXaEtGMCUyRjkzbDdzTHdIaFBtYU4zajdTWW0xUEJKam1zU3B0UWRXZWVncTVJTnRLOEVQWlBmcjNYVnNoSFFWOWlJcmNORUJwS0pqTDNBTHd6RUF1OEFlRWYzOE0xb3c2bzM2SUJtdEZHYWdxQ052JTJCYXo5JTJGNG9PTGJZWXpNeiUyRjdTcm4ycFhRS0ZKbGV1bFk5Z2FBRW1UYyUyRjhUMDZJYnJuTUM2WmZ0aG4ycWVTNnk3RCUyRk5EZ0tubnElMkJucGRucERqSHIlMkJoaWlub3pjRWNoJTJGbXBEV0dWWXNSd1pheW40SnFPNzR0RTJuVFFJSFpWTnNESnp1SUxaVGNJb090ekZ3bHh6cG5vT3I0dlkyd01saDd1V0FjNTBhZlp5cElLY2x2QnJJb2VubjJmekR3JTJGU3VIWUpuUTNxblFMV1lvaHl1anVmZWJYQTlORlVqU1dNMDVjaHU3bzltazRrJTJGSGZ2ajYyR3FHbVNhWWxwMUcyS0E5alQ4JTJCRER5Z29mWjlHcWdLZ2VnNXFES3NkS2xrZ1IySGElMkI3T1pKZEJUSnRrR3l6OHdSbVZ4Rk1HeVRiN1RLN0NtbGFJTmx5UHluSE9IUGZHJTJGdHppZWZWcmtYVjZsOVZTMUY2RkNESFNteXklMkZNM2dyJTJCeTlHJTJGeXlSMXV1TlcwM1lYcWlnM0s2TzRkd3MyVVVpaFdOemNFUUY2VEtKU3JQTEt1aXIxSFVWcTVkWFVnd0RPMDZzWnRxR2tGTE1GeE56Z3JhR2MybWdmOTNRNnZsdiUyQlZFZGkwbDlGUURoQllWS0J4cHRtSUVHcmRpQzhqVDJiZnNweWxFc2N0NDlnZVpOTlZpUUFQVzNZRm4zVFJUQ00xT2tjcU80WFEyOWk4anQ4YldaTlpTZ3BoZGIwRFZzVVlKZ094UVRwOG13NHR3S0RVcG9FNGJjQWROOGU5aTd0MXV0bE94enhZem5MNE1WSlhNb21jQWxHZmtnNGZnNHh2clV5em52NGZLNXZvVWVSTCUyRnA1MTA2eFVublNXJTJCMkN3TkRiTFVzM0daaGtZbGJwbVlSbzl2RFRFNVJzaHpjOWdXQ2tXQmtOdFdaYjZwcWhOVDNYaDJuRlhlVyUyQlhJbVVKMlhPJTJGMTJvUVBxeFZ6WEslMkJ0QXVlc3U0Q3lyVUpWa3M3JTJGeVB1Z3A4ZCUyRkxiQnJ3cDglMkZvUDhkJTNDJTJGZGlhZ3JhbSUzRSUzQ2RpYWdyYW0lMjBpZCUzRCUyMnN0bWRoSGdsZV9zTDRIYWpKQmpIJTIyJTIwbmFtZSUzRCUyMiVEMCVBMSVEMSU4MiVEMSU4MCVEMCVCMCVEMCVCRCVEMCVCOCVEMSU4NiVEMCVCMCUyMCVFMiU4MCU5NCUyMDIlMjIlM0VuWkt4RG9Jd0VJYWZwbnZ0RWFLckZYVnhZbkJ1YUlVbWhTT2xCdlRwQlF0aXcwQTBhZExrJTJCNyUyRmNYUzhsd012dVpFVmRYRkFxUXhpVkhZRURZV3dUczZpJTJGQnZMd1pCdFJEM0tyNVNqTklOVlBOY0pKdTJ1cG1rQjBpTWJwT29RWlZwWEtYTUNFdGRpRzJnMU4yTFVXdVZxQU5CTm1TYTlhdXNKVEFFcm40S3gwWG95dCUyQjJqbmsxSk05cWcyaFpEWWZpRklDSXNKZzA0UTJKT0JoUWU0UlhTcjJpU1hIVmRtMlA2MFdOJTJGMyUyQkglMkJCeiUyQk90cXR4dk5ZSDMxc3I0YnlmNE9aQzhBQSUzRCUzRCUzQyUyRmRpYWdyYW0lM0UlM0MlMkZteGZpbGUlM0VQmL71AAAgAElEQVR4XuzdXaw1VX0/8PHm34sSIN6IAWuCpjWmxRdiUp8Qm5Rg4x1KsfRFgtSApWDaUA1BsRF8iy1pgxSRVrSIDSlFSXvTSL1oojSpaaulJdYEUqMETQyNKL3oDf/8tl2768wzs/de+5zzOzN7f/YND+esPWvNZ+2Zs+c7a9Z6Qdd1z3deBAgQIECAAAECBAgQIECAAIHpCrzgBRFgPP+8DGO6fTTcshe84AXRcXNrtvYSILCHAnG+yng5J2Yoq2NXBHyP2JWetB9ZAo6ZLGn1EBi//u26ToAx1w+Ik+hce067CeyfgABj//rcHk9fwPeI6feRFk5LwDEzrf7Qmv0T+N/vkwKMuXa9k+hce067CeyfgABj//rcHk9fwPeI6feRFk5LwDEzrf7Qmv0TEGDMvM+dRGfegZpPYI8EBBh71Nl2dTYCvkfMpqs0dCICjpmJdIRm7K2AAGPmXe8kOvMO1HwCeyQgwNijzrarsxHwPWI2XaWhExHoHzOf//znu8suu2zZuo997GPdu9/97gOtXVXm29/+9uL9F154YfeJT3xi+b4/+IM/6J588snuox/9aHfVVVd1Dz/88GkCl156afehD31o8fuvfvWrB37/spe9rPvsZz/bPf3009173vOexb9f//rXL8r8wz/8Q/e2t72ti7Y+8sgj3d13333atl/3utd1Dz30UPeSl7xkIvKaQeDHAgKMmX8SfPGYeQdqPoE9EhBg7FFn29XZCPgeMZuu0tCJCNTHTAQTdTjwgx/8YBEmnDp1ahliRBDx4IMPLsOAUuacc85ZBBYlwHjmmWcOhAwlwKhDjQge3vWud3V33HHHMowo77/pppu6t7zlLYNKsa1HH320+8xnPrP4fb+N8bNNtjORLtCMPRcQYMz8A+CLx8w7UPMJ7JGAAGOPOtuuzkbA94jZdJWGTkSgHDNDYUU0MUKG97///d299967aPHVV1/d3XrrrcvAoYQF5efnnXfeokwEGj/60Y8WIcNZZ53VHWWAUbc16i9hRtRTXv0AI/5/qO0T6QbN2GMBAcbMO3/oi8dv/dZvdd/97neXJ8BVqWrr8LR+ujt0ct1kmFx/mFsMgSsn7FVdEvvWH+aWPcSt/BGoh/INDRec8kerf8egbusmQyGnvG/aNl2BzAAjzhXnn3/+8g5YGS577bXXHvhZfSerf2z3zy1lG0888cQB5He+853LYb9Rb7zqO2bxsxiiG8N377vvvmW7htoU7+23fRfOOdP9VGrZ0PeIciGz6m/12PHQP276d5uL+ND7y5D3Msx96G9+vL/8zR36fX8benjaAvE9MkYw1K+x74T977f97yv1NuLRhzhX97cdZepz9jY65ZgZGg3R3160Mc79/e+4daBwxRVXLIKCeOwk/nbEox0xkuIoA4xoVznm4t/14yRjAcY2Nt5DIENAgJGhfIx19L94xMkp/rDHK07a5UvA2LCww54c++/fdJhcHYSMJdhDbEMXB0P7cIzk3e/93u8tnlUstsdZ13FsO7yvv/76xaYvuOCCA89pbjIU8jjaZJv7IZAZYPTPC/HZ/shHPtK94hWv6O68887F3a36i+Wzzz67OK4vv/zy5THRPx42GbrbP0f1v3DX4UT5MvnCF77wwHPGdZmhZ6MN892P4yVrL1cFGKv+Vm9y8Rb7UI6z+HcMey/P0w+9v3/MDf3Nr13GvhMM3V3O8lRPm0D9aEMZDTB0I27s+22pLfOzUAcYZaTF2DwRYwFGtLuc60uAEaM0Yr6KmPMiApgHHnhgMQfGpo+QrLs5WL5vR91DNw39bWn77Cp9cgKjAcbYH6b+naF+clrfiR5KVWNXS/LZkroWoqEkfyyhz74zfxLd2P/iEablVZ/0MgKMsaFm9c9jmFxcJKwayVEPvev/QRj6A1X/cfjSl750YCKl+AMQKXZ9p6d8/ko9r3rVq7rbb7+969+1qT+f5XfR/k996lPd9773veVIkPoz379TGvXHq57cKf4/PpuXXHJJd/bZZy8vlsqxdc011ywChuuuu24RktTHYrz3rrvuWlyAxb7GH7n4IxQXZkPlh0KW2F5sIxL+2McY4hjOmwyFNJHTSRzlu1NnZoDRP4/E8RWBXZwvylDecr6Mu15jQWj9803+LtbnqLEv5mVkSGnjGWecsRg6XL6k1n9nh7YRn4js4HZ3PoX2pC+waYDR/9xtGmDE5zn+3sUopP6oqP6z/OWiLv4bx8M2Acaq7xB6f3oCQ+e4oe+sY99vTzrAGPoM18qtAUZ8byt/A2I7LQHGqjkwyvH7xS9+cdG8N77xjadNNCrAmN7xoUXDAocKMPp328sHv9zBGvviVZqyaeo6dCKIn9VJfvz/Ph549RePcmc9LmTjQrucVOOiMyPA2HSYXD/AOOwIjPIF58orrzwwsVH5fMXnJCzigv3iiy9ehgPxmYmfxRer+KJUfx5LOFBmX67riPeUYeh91/quQWyjntip71NfPJUvbfHlrh9g1MPPS4Dx4Q9/uLv55psXocUrX/nKA4FHXX4owKjrLV8sS8iz7g+xEymBwwhkBhj1+bA+RuIRjjjm41wQk5iV80L5d38CtDhuy92w73znO2snTyvnijiW60nb6i/Z/QDjtttu62655ZZlsFKHmUMTrR2mD7yXwLYBRv9v9SYBRvyNLH9X4vgpAXzcaR97f/23Mi7ISpgx1HOZd919co5HYOxaoQ5yV32/PckAY+z7a/25j/ZtOgdGCdfLsREjBiPg3nQExqoAo38zbOj73j5eRx3Pp9pWj1vgUAHGuj8c99xzz+AkMasCjHUHz1iSPxRg7MPkM3WAUe6sl+HR9cXpUQUY/eFp4V5GNGyaMkeA0d/Ops8jDo22GXtWcqg95Y9NXLS8+MUvPnAxsurzUu52RkjSHy5YfleWuSrPLvb/sG0TYMRQwi984QuLQybCihJgRHIeQ2Tjj1r9h71fvh9g1GXjd9GmuCsW23HX6rhPt7afGWDUoeBFF110YORSfOYjACxf4M4888xlmNEPMOrjIi7A4vjuz4FRj8Kqz1FDowD7j5CU80kMFS7D3uNLaAkz+8FKvf1N5w7yySOwSqBlDoz6b/Umc8LUf2P6f382DTD6817VoyWHvhPsw+jbXfpEbxJgrPp+uy7AGJoDo4zO3dZxk1VI6lF1mzxe3Q85yijg/vfjTR5l7O9X/wZz/H7TkS/bGnkfgeMUOFSAUSbPGfsStc0IjPpLZ38N5VVJ/lCAcZxwU9l2fRIdeiSnnPiOKsBY9ehHS4BRtrPJHZzaepPhpPWXnfqzWT6v/UdIyiMUdYARd2z7a27H+yLAqO8gRdvKF7S4IOqPLqkvVvo+/f/vP0ISF0oxyVL5bwkw4v9/7ud+bvn8YvlSOFS+H2AMfeEsX/aG7i5P5XOuHbshkB1glGMzRlxE6BB/U+pHqOL4isA3XmMjMPoBRn3Xqh6dUR6viuP4n/7pnxbPL8dIqf6EymMBRh2ilKH2MRprbATGqvPtbnxa7EWWwCaPkAz9rd7k7/dQwFACv7H3198dW0ZgtIzmzLJVz3qBoWuFfl+u+n67LsA4jvlQ+sdMfzLRoZtyqyZIH7qBtmry27FlVIduMsbfufI4cz3vxdD2rUKy/vOqxDQEDhVgxC70n/mvLxjH5sAoyecmqWvNtCrJ3/cAYyigGLogL6MDVp3wW9Ld+jnsbefA6CfTqw6NVQFG/2Ji7At+uYCIu7L1H4F6v7/85S8fGD1U9rO+a1suWLYdgVHCujpwiS925RGSuMsUc23EyI4yJ0a8p8xfUV98xe+HyvcDjCG/dcPV6+DQHBjTOHHPtRXZAUZ8diNEiGXp3vzmNy/mw4m/WXFRFPNhxM9LUL7tHBj1Y2MxLL4+xoYuqMYCjDi2yjns3HPP7U6dOrVo29jfSQHGXI+C6bV7kwAjWt3/W70uwBgLPcqoo7HQvD6GNrlpEW0rQ+xLSB9/S/ujqaYnr0Xlc9UPGervtHGTpX9zaOj75rpR4fVyoYeVt/TwYQW9n8DhBA4dYPSrr08g24zAWJWgr0ry9z3AGLoT2Lfsf9Ee+0O/bYAx9AWnn/AOBS0td002DTDK3cxo04c+9KHuve9973LOlDrAqOezqD+v9eNPZXWCCy+8cDmpWHmGvf9HtDZeNwfG0LFTDxt/7LHHFiMw6uf3S4ARd42jjfEqd2mHytcBxqpROOXLQ7/NY3cADnfaObp3l33q33UYGh7a35d++Fq3KoLY+NzE3e/+tjdZom9VsFvq2fQRt7Fy6x756d/tqU1qtzp07o/QqR+NqH+37RDt7ACjjE6KoKKeMylWEnruuecWI6r6KzUd9Sok/fPsqgCjDjWLfemrcv6p/9ZF0LHJ8tNHd8TZ0i4KbBpgtM6BsW6Iev8xzrC1CskufsJW79O6+fD6c5LF1sbC4TrMGgtHjkJYgHEUirZBYHuB0QBj1XCmuDPUn2iwNKG+K3SUc2CsS/JXTVS5Pc/031lOomMX9v07Jv0QaOhC7zABRvkCUq+6UV8EjV1E119aYhtjy1KtCjDqi8a4yLzxxhsXX4biEZF4vrw8B1ku2B5//PFFPTFB0sMPP7xYGaRM2llf4MXP3/72t3cxc3NcLMSrfrxk3Sok5S7QujumYyMh6ueG6wAjgpV4ZjL2K0ZllDu2/eeM62OzTEZYj6ToX2BtMhRyKkfG0OdpLJgr/tH2/gTALZ/5Tfa9nih16ItWafczzzwzuBZ7HXLEsdQvV/axv/xm/b56Et864CzhXvm8lGOqHunTX/2mP1HsunB6zCg7wBj7AjsU+NZfiuN8EK9+ULNqyHuZsDNGfAx9iY7jNM4v9UoMQyHU0LPKsb3+ubs+72zymVSGwKrj8vnnnz/w603/Vg/NCRN/f2NERP13qd54Cfrjscj4dz2nTD8gHrpxFdsqQ/SHvhOMHUM+AdMUGBqtXQfrLd9vx869/T0/7PxBAoxpfpa0an8ERgOMoTuv/WS8/yW2/551X3LXpa71cK91SX5cJI79wd3l7nQS3b53193B3n7L3pklsMmoknpd+aGl/KKt2wQYm46g6F9ER3AWX/pLwFZmHe+blZCiX66ch+uAbt2jPf3huPVkYesu5kvQUbdv22PnJAKMrM+iegjMVcD3iLn2nHaflIBj5qTk1UvgxwKjAUb8sj8MemjodD85rSeuGZsDoySfMUKjPzvwUCq67rGSMklaGepfJohsucCY6wfCSXT7ntv2Imz7Gr3zqAXGAox+39bzePSX8ts2wGjZl7G7hENLq/W3u+0jJP3AoYzIiJ/XI5zGRhWsCoTXhdNjNgKMlk+NsgRyBHyPyHFWy+4IOGZ2py/tyTwFVgYY89yl/Wq1k+h+9be9PSiwaYCxbgLgVSMw+nNgtA49HRvhsGnAetgAY2g53/pRorEAY9XQ7DDZZhk6AYYjmMD0BHyPmF6faNG0BRwz0+4frdt9AQHGzPvYSXTmHaj5hxJY9Zx2fZG+bgLgbR4h2aTh/cfu6vdkBBhDjwL2R6cM7Xt/wt/+vm77uJ4AY5NPjTIEcgV8j8j1Vtv8BRwz8+9DezBvAQHGvPtv8QxQf/Ktme+S5hPYWGCTOTBizon+mumbXMRve5FeGr9ueeDjDjDGJrLr1zs0wec555yzXJZwqDNaVg6q3y/A2PijrSCBNAHfI9KoVbQjAo6ZHelIuzFbAQHGbLvuxw13Ep15B2r+oQQ2WYVkkwmAj3oExthjI/XOHmeAsSpgGFpeOdoVqwaMzfbeb+vYYyfrOlOAsU7I7wnkC/gekW+uxnkLOGbm3X9aP38BAcbM+7CcRMuyjWWi1VjuMyYzLRcmZTc3nbgytvfkk0+uvAsb2yxLf7773e8+IDl20bjJpIXbdEndjrE21dstF3GxGkSsRV8mNYwJHseWcB1qV9nOY489dtpymGUS231Z7rC+yA2rWEIvPoO/8zu/042ttLFNX/dDgFhmtD9PRZmfYdMJgIdGadRL6fbbGduPJTbHPs9Dj6z0584YCjCGPrubzoHR9x9a3rC41PtW2lUmQe5bls9vWRWlLHloDozDfnq9n8A0BFyMTaMftGI+Ao6Z+fSVlu6mgABj5v06FGA88sgjo3dTdzXAqLuxNcCIJXhbA55Svlwg//CHP+x+6Zd+qStBTvz8+uuv777xjW90b33rW5c/n/nHbWXzxwKM973vfd0dd9zRrVvqc5dt7NuPBYzA8EkgMD0BF2PT6xMtmraAY2ba/aN1uy8gwJh5H5eTaAxZj1eMJvja1762GBkxNBx86Nn/cqc27ijHXdW4Axt3teNVlsWt776WcnFBepgRGP1leus7uvUd7LoNMTriVa96VXf77bd39bK+pR3R5rI0b9w5vuaaa7qrrrqqe/jhhxf7U+42x7/j5/UIjA9+8IPdDTfcsNj/2Mef+Zmf6S644IJl+FBGudSjTco+RJvizvSdd97ZnXXWWV14xQiEeJVt9O/o9/frjDPOWLaztqiXI673uX8X/Uc/+tFypMNYf8Xn5LOf/WwXdd1///2L/YxREmEW7a9Hi0TZ8jnou8UcCXfffffyMxITZhbnaOMf/uEfLj6Hv/u7v9v90R/90eK/4eK13wJZAcZ+K9t7AgQIEDhuAfPPHbew7RMYFxBgzPzTsSoFXhdgxK7HBerll1++uEivVx645557lo+Q9OcZqMvFxe/5559/2giDTR4hqbfzpS99aXERHRfXTz/99OK/8RhMvGIkw3XXXbf4dwQOl1xyyWKESV1H3Y7+4yTxvihf78fFF198WoBx7733dvUjJBFkDLXj9a9//fJTUwKMN77xjV1c8JdHJUrYEY/hhE8JUk6dOrWwqucQKPt17bXXntYP4dJfTaPsT92/Ud8nP/nJRXvPO++8Rb+GSYwu6TvH7yIgKQZPPfXUMrgqdYVDmfjyla985cIqQosSVEQbon/qfot6j+sRoZkfppr/vwIZd60y6tChBHZJwDGzS71pXzIEHDMZyuogIMDY2c/AugCj3CWvAcoIiv58D/VF9Ze//OVlgNGfkLAexfHhD394NMAoIyHqussIgnJRHIFEXGTXcxXU83jUd+37EwfWjyzcd999y3aMjQqp573YJMCIdpeL+LCKERVlhEXZp3qb8ehOCStK6FK3q3boP25Rr5JRRklEQNAftVDmJrn55psPhAX19iIAqkOPur8ilOkHIiWAqss98MAD3aOPProIKaINpU3xKEi0tQQxdb0CjJ09zRzZjmV86cuo48hAbIjABAQcMxPoBE2YlYBjZlbdpbE7KGAExsw7dV2AEbsXow/Ka9XFbH0x2g8wyqMEZTslZBi7QF83AqM/SiC2WwcP9WMT9SSC9QSbmwQY/YkHo5569MG6STyjTTHio0xc2J+stA4wYtsRYlx55ZXLiUDrgKd+JCPKFsP4d71fdYARv6sfgYn/j0dPoo469OgHGGP9VY9uiWCiNu8HGP0AKoKvCDTe+973LkbCRPAkwJj5CSS5+Rlf+jLqSGZTHYFjFXDMHCuvje+ggGNmBzvVLs1KQIAxq+46vbGHCTBaRmCURyn6IwK2nQNj1QiMoTkmStBQX7TXIzKGRmD0H9toHYERc3xEmPCFL3xhAR+PsdSPj8TP6m3GBX60L4KJ5557bjmRaoxwuOKKKw481tEfgTEWYMSjPPVIiE1HYIz1V390x6oAY2gVmnp/BRgzP3mcQPMzvvRl1HECdKokcGwCjpljo7XhHRVwzOxox9qt2QgIMGbTVcMNPUyAEVvcZg6MuIh+8MEHFyMZVj1CUl94R1395SDH5sCoR3+U1TzqOTDKXBHr5sDoBxhlBETLCIwyb8a55567fJyi7omhUCQmDC2TcJaAoB9g1HNWxPY2CTDKMpcXXnjhaavMrJoDo+6vel6PVSMw6jkwIrQpfVUeITECY+YnjhNqfsaXvow6TohPtQSORcAxcyysNrrDAo6ZHe5cuzYLAQHGLLppvJGHCTBihMGq1Soi3BhahWRo9Y/+oxXrHiGJi+KxVUj6P+8/QlJW6xhbDaU8fhLvi7bWK6qEZD2pZv8RkhLqxH8jhFi10kqU6Y9IqMOC/nvrx2J+//d/v/v6179+YBWUmES0jPooIyhKaFFWRnn729/effGLX1yEKfXvbrzxxsX2yiSidb/W/bXpCIzSjmJXrM8888zl5Kf9ERhlVM1jjz22mEy0P1pl5oea5h+BQMaXvow6joDCJghMRsAxM5mu0JCZCDhmZtJRmrmzAgKMmXftPp1E+0vAZnRdf9RIRp3b1NGfaHWbbXgPgeMWyDhfZdRx3E62TyBTwDGTqa2uXRBwzOxCL9qHOQsIMObce13X7dNJNDvAKKMYyiMrU/qo9Eep1KMsptRObSFQC2Scr0od5fGvGL1Uv8rjXfGzoUl+4+dl5Fn9vggJy1LP9eiieLyqv9pTHI8xeXKsXBSPlPVfl1566eAjaT4tBE5CIOO4PIn9UieB4xJwzByXrO0S2ExAgLGZ02RLOYlOtms0jACBnkDG+aofYNx0002LFXPqwCIeL4uf9ZdmjjIl+KjfV+biid9fcMEFXf3IXAQY8apXe+p3/FA9PhwEpiKQcVxOZV+1g8BRCDhmjkLRNghsLyDA2N5uEu90Ep1EN2gEAQIbCGScr1YFGNHEen6exx9//MByxGUX+qsrRQARoylizpx4f5mvJsoLMDboeEUmLZBxXE4aQOMINAo4ZhrBFCdwxAICjCMGzd6ck2i2uPoIENhWION8tS7AqB9F66+2E/s1NAIjQot4xciLCCwuueSS5agOAca2nwbvm4pAxnE5lX3VDgJHIeCYOQpF2yCwvYAAY3u7SbzTSXQS3aARBAhsIJBxvmoNMGJUxRNPPHGg9WXlo/hhvZRzzH0Rc2E88sgjy0dGhubAqOfZiG14hGSDD4ciJyaQcVye2M6pmMAxCDhmjgHVJgk0CAgwGrCmWNRJdIq9ok0ECAwJZJyv1gUY9Yo9/REYQ6v5DE302V/COfbVHBg+83MVyDgu52qj3QRO6m8ZeQIExgUEGDP/dPjiMfMO1HwCeySQcb5aF2CsmwMjRlR897vfXa4SMvSISD1HhkdI9ugDvKO7mnFc7iid3dpTAcfMnna83Z6MgABjMl2xXUOcRLdz8y4CBPIFMs5XqwKMMppi01VIYqTFZZdd1tUrkoRaHYLE7+JlBEb+50mNRyOQcVweTUtthcA0BBwz0+gHrdhfAQHGzPveSXTmHaj5BPZIION81Q8wvvrVrx4QruenGJubIgKKBx98sHvHO97R/dmf/VkX73nJS16y3E4dhMR8GAKMPfoQ7+CuZhyXO8hml/ZYwDGzx51v1ychIMCYRDds3wgn0e3tvJMAgVyBjPNVRh25amojcLwCjpnj9bX13RNwzOxen9qjeQkIMObVX6e11kl05h2o+QT2SCDjfJVRxx51mV3dAwHHzB50sl08UgHHzJFyHvnGnn/++cWy57fffnv3hje8ofuLv/iL7txzzx2t57nnnls8BvqpT32q+8Y3vrEYcXnppZd273nPe7rzzjvvyNtng4cXEGAc3vBEt+AkeqL8KidAoEEg43yVUUfDLitKYPICjpnJd5EGTkzAMTOxDuk151vf+lb31re+tXvmmWcWk3JHOPEbv/Ebg42OpdLf+c53dg888EB36tSp7jWveU33zW9+c7H8+atf/eru05/+dPfyl7982ju8h60TYMy8051EZ96Bmk9gjwQyzlcZdexRl9nVPRBwzOxBJ9vFIxVwzBwp55Fv7P777+9ihbAbbrih+8IXvtD9/M//fPfJT36y+3//7/+dVtef//mfd9dff3139dVXdzHB90/8xE90MYIjRm984AMf6K677rruox/9aPe/F8xH3lYb3E5AgLGd22Te5SQ6ma7QEAIE1ghknK8y6tDRBHZJwDGzS71pXzIEHDMZytvVEY+DRBjx7//+792f/umfdn/8x3/c/eu//mv3uc99rnvta197YKOl7NDvY/TG2972tu773/9+95d/+ZfdS1/60u0a5F3HIiDAOBbWvI06ieZZq4kAgcMJZJyvMuo4nIJ3E5iWgGNmWv2hNdMXcMxMt4/++Z//ufv1X//17oILLujuvffe7rOf/exiNMatt97a3XLLLQca/h//8R/dFVdc0f3UT/1UFyMxzj777AO/j3k0PvOZz3T33Xdf96Y3vWm6O72HLRNgzLzTnURn3oGaT2CPBDLOVxl17FGX2dU9EHDM7EEn28UjFXDMHCnnkW7stttu697//vcv5r2IuS1iPotf+7Vf637yJ3/ytMk8y5Lol1xyyaJ8/xVLqsdEnhFuXHnllUfaThs7nIAA43B+J/5uJ9ET7wINIEBgQ4GM81VGHRvurmIEZiHgmJlFN2nkhAQcMxPqjKopMWHnr/7qr3Y//OEPF2HFT//0T3f/8z//0/32b//2YpLO/mSef/3Xf70YrRETfA4FGPHoyK/8yq8s5saI0Rhe0xEQYEynL7ZqiZPoVmzeRIDACQiYBOsE0FVJgAABAkcuEBM9ek1L4G/+5m8W81/EEqh/8id/spy0s/z8F3/xFxePlcRojHh9/vOf7y677LLFSI2hAKP8XoAxrX6O1ggwptcnTS0SYDRxKUyAwAkKZJyvMuo4QUJVEzhyAcfMkZPa4I4LOGam18H1SIuYtyKCifJ66qmnFo+R/Od//udiPotf+IVfWPzKCIzp9eOmLRJgbCo10XJOohPtGM0iQOA0gYzzVUYdupbALgk4ZnapN+1LhoBjJkO5rY4yIefXvva1lW+88cYbu5jbIvrQHBhtxlMqLcCYUm9s0ZZyEv32t7+9SBu/+tWvHthKGRY19vsYZhVJ5VlnnbV8XxkyVX4wNnQqysXayA899NCi6FD9L3vZyxYzAL/+9a9flBnb9g9+8IPuqquu6h5++PgCAtoAACAASURBVOHTFIba2C8U242Jduq6SplN9ydOaPEqbQ6Xm266afGzemhZnPBigqAYhvaSl7xktNc2LRfti3b3+2GLj4O3EJi0QMaXvow6Jo2scQQaBRwzjWCK772AY2Z6H4E777yzu+GGG7o3vvGN3Ste8YrTGvjss892f/u3f9ude+65y/kxYkTGL//yLy++yw99B7cKyfT6ubRIgDHdvtmoZf0AIy643/KWtyzeW0KBWMf4da973SJgGPr9qVOnlpPTxEX8gw8+uAgl4oAu2zjnnHNOez5sKMCot78uZCjbruuP98SF/7ve9a7ujjvuWAYfqzBiO9dff/2iSCybVE+00w82xuqM99YBxiOPPLLY31h6SYCx0UdRIQJrBTK+9GXUsXZHFSAwIwHHzIw6S1MnIeCYmUQ3LBvxzDPPdHGt82//9m8HHhGpW/ncc88t5seIiTk//vGPL64b/vu//7t7xzve0f3Lv/xL97nPfa577Wtfu3zL97///cXknv/1X/+1eM9LX/rSae30nrdGgDHzD8CqACN2LS7Azz///MU6x/0Ao1y0P/nkk4uL9RilEQd3rJVcRkxEmbGftwQYq8KK/miGfoCxbiRD/P6uu+5anLwihCgjI1rqjP2M/YnXi1/84i6GoIXdJgFGGYL2xBNPLIKi/oiU8rPvfOc7izbW5SIkMgJj5geh5m8skPGlL6OOjXdYQQIzEHDMzKCTNHFSAo6ZSXVH9/d///eLZU5/9md/djGi+YUvfOFgA++///7F9/o3vOENy3Jx/RMjuGMUeIwqjwk+Y4LW22+/vfvABz7QXXfddYufm4R8Wn0uwJhWfzS3ZlWAUR4biVERm4zAGLuQHgsCWgKMllEVLWVLCBP/jZEXcWKK9ZxjFErrdobw1wUY8Z4Ihi6//PJl/bGMUwxFe/zxx5ePmpRyZYRKbLeU+9KXvuQRkuZPvjfMUSDjS19GHXO012YCYwKOGZ8NAm0Cjpk2r+MsHWFDfP+PwKGMrBir71vf+lb31re+tYsbtzGZ55ve9KYuRm9cc801i5uPMSL8Na95TffNb35zcQ3x6le/uvv0pz/dvfzlLz/OXbDtLQQEGFugTekt6+bAKPNXrJsjI/Zp1UiAMpKj/3jGujkwyvwV9cX8qnkjoh0twUN5fCQS0hg1EvtQHv9YN3Jjk36M/b777rtPK1qPqqhHkNRtjzeV38XcJMUq9r9uW/zOHBib9IYycxfI+NKXUcfc+0H7CdQCjhmfBwJtAo6ZNq/jLF1CiXhEJB4DedWrXjVaXR121JN5xvwYMYL7r/7qr7pvfOMbi0fo4/olRmacd955x9l8295SQICxJdxU3rbuEZLSzno0xtjohKMIMMbmwGgJJVrLlscyyr7W4ULLXBpDfbpuBEY/mKgft+kHGPWSTvG7Mlno008/LcCYygGlHccqkPGlb12oW08KXD/+Ve94OYeUsDW+2MQXmfKKOzVlrqH4WX8S4v77x9aaL+fl2EZsM84nQ2vS98vVj6MNtbv8/tprrz0wJ1AdRA+Fs2XS59jmWOhdzlvxpW5o4ua+zbF+oGz8SAQyjssjaaiNEJiIgGNmIh2hGXsrIMCYeddvG2DEbvcn7NxkDowYchVzasRIjJZHSMYeQ4k6S8hQLhZaAoyhgKF8SY8hYfFMW3+S0KE6xz4G6wKMuFDYdATG2CgLc2DM/CDU/I0FMr70rTon9s9Dm5xrhs6T9XxC5UK/PEYWGP3Jg+P/P/KRj3Rnn332gdWL+j+PAGOTcnHeWRXOlmAmngMuEzJHu/oBRvysrLDUn7C5H3r3O3no96XeGPlXBzwbf0AUPBGBjOPyRHZMpQSOScAxc0ywNktgQwEBxoZQUy12mABjKFRYtwpJ/L5M+hn/fvTRRxfzPcTwq6FJQmu3sRVB+iucbHJREdsd+4Jdtyvml6iXV121qspQH68LMOI928yBUTt7hGT7o2uT5YHX3WX/8Ic/vGhAvVRuudgb+vkmre3XObYU8dDnq7/9sUeh6mNx7LNbHn/qjwio21ffdV/V7noUQv2eTTxKmYwvfevOibXbunPN2DmmDh3vueee5TmxtqjrKeXPOOOM7s1vfvPy4j76/0UvelH3la98ZRFslHPBunKbBBgRrMZ26vPrqgAj2l57lBEWY6PqNjn/1stzt3xOlM0VyDguc/dIbQSOV8Axc7y+tk5gnYAAY53QxH+/7st6af6qL+L1BX6UL8Ody3vri696qHQZShxzT4xdSMY26iHF/W0PXQhtugpJPQKknlejfxdwkzrHunldgFHmsxhaXWTVsO/azgiM7Q+yoc916132oc/RurvPq1rcn5dl7CJ57LGCettjd9JLmDAWJNRzwfTDmHrfLr744uUopRixFMuKlflk+vO5xEo/sc56vIZGNm3Sixlf+o5yBMbYOabsa71UdX/EQf3eEkzEs7nf+973lqs+xSiKOHdEeFYHGOvKbRpg3Hbbbd0tt9yyXFlqXYCxbuntuo/HjpGjmHtok8+SMkcnkHFcHl1rbYnAyQs4Zk6+D7RgvwUEGDPvfyfRmXeg5h9KYNVd4DJSaJu77PXFZ4zQKI9NbdPYoZFO5TGm2F5/BFKpo4xYiomm4t9leeCygk19kbuuXfX+9B97qkcs1XfMxx77irrWjf4Ya0/G+WrdHBirRpyUdpcy68LFVQHG0ES90XdlqecINWLC4Vj6rZ7sNx41W1dubA6M0u667gceeGA5Ui5GU5TP8lA4OxRgRDvrV5lDZGzUnQBj3dE4vd9nHJfT22stIrC9gGNmezvvJHAUAgKMo1A8wW04iZ4gvqpPXOAoRmDETvQv5oZW3dl2Z4faWLYfIUu8+o+v1HVt+whJvY3+Y1X1fCxjowzGwqFVwcY6o4zz1dgIjKEga124dZgRGEMBxh133NHdfPPNi1EuZT6hiy666LQAY125TUdgROh15plnLkbMxEiPCExWBRjrlt6u+3fVqL56xaV1nwm/P3mBjOPy5PdSCwgcnYBj5ugsbYnANgICjG3UJvQeJ9EJdYampAtssjzw2BwY9Z34+k573Fm++uqrl8PuD7tT/XAk2lMex4g74scdYPQv0vsjLsYu0ofu0JfHXvpzamxqlHG+WvUISX+On3UBxqrHJEoftsyBEfMFRfl4jOTrX//64jMWr/4IjHXlWgKMeMyt9PG55567nNR47PG4MjmoOTA2/VTPv1zGcTl/JXtA4P8EHDM+DQROVkCAcbL+h67dSfTQhDYwY4FNlgded5Eau1+vwPPlL395OeT+sJMQlsc94oI0ttWfH+M4J/GM/RpaFaL/WMRQgNFvd/8jsm5kwthHKuN8dZRzYMR+jK1CUlYd2XQVkjLqJSYWjol/y6MYjz/++GCAsapca4AR+1GWTS1zGvU/e1YhmfGJ8JBNzzguD9lEbycwKQHHzKS6Q2P2UECAMfNOdxKdeQdq/qEEhu6Qt95ljwaUi7eYVyLujMdw+8MsAzm22s0mo0H6INs+QtJf9adst7+9ekRGlInHDcbm5ai3sWoZz6kGGNGu2iX+v0zAW7e5nmS3hBgx2XF59VeVqSc3jjL9ESr9ET71ykVDj5rUKzuVoKQuNzYHRml3tKFe3jn+vx+0lECj3u96VNK6iZljH2M/+nNk1JM2H+rg9uY0Ad8j0qhVtCMCjpkd6Ui7MVsBAcZsu+7HDXcSnXkHav6hBI5qDoz6InXbxyPqHdlkZEWU36TcNgHGqlEnY6uQvPvd7x5tT3/UxtjEn+s6M+N8lVHHuv30ewJzEnDMzKm3tHUKAo6ZKfSCNuyzgABj5r2/arh0uSgrqzEc5a727wb27/YN1VUugmKCurJ8YFwsts43MLb8ZH/Z0npp1aPc9yltq14NIi6GL7nkku6JJ57ojqPPp7TfpS2bLA8cZTe5y15GR4RhPalm64SeY3eu+3ft+wFG/RhLLE1cXpsGGP2VJ+oRA7GtOpipR4KUu+7r2l2Wbu1vq+VzkfGlL6OOln1WlsDUBRwzU+8h7ZuagGNmaj2iPfsmIMCYeY+fVIBRs226bN7QkoRjF22ruiW285GPfKQ7++yzl0tLRvmxn8+8i1c2fyzAiDfFHXUvAlMSyPjSl1HHlEy1hcBhBRwzhxX0/n0TcMzsW4/b36kJCDCm1iON7WkNMMrohaimTCIXkwvWPy93asvyezEvwP3337+4s1/uIpfQ4oMf/GB3ww03LJ6DLu+Lf8ez0eVVnonuj8CIMvG7hx9+uItnt3/zN3+z+8d//MeuTHhYr9ZQT6ZYtnPGGWd0b37zm5dzFcSd8he96EXdV77ylWWwUd81Ls+Hv/KVr1w+53/33XcvmtlfkWKo/VGubC+2FXfJow3lbn39THnfKQxvv/32xX7G72KZwXCq663vitd3y2N/Sx1/93d/t9hGTAj49NNPL51jOxdccEH36le/evHzeB1mDofGj6HiBDYSyPjSl1HHRjurEIGZCDhmZtJRmjkZAcfMZLpCQ/ZUQIAx845vCTDqFQkuvvji5UX8zTfffOAxjrhIj9c111yzKPPUU08tgoZ65vv4fXlsJH5e/7ue3K9+Vj5m1Y8L77FHSGLZvvpxktKO/kiCEmBEKBDLEcbFfYzkKI+lxP/fe++9i4AggoJoezxOUuYbiJ/FfsUrwpJoVwy3j7bFa6z9sVpAf4nBCy+8cFF/vZ9RLh5ZiKDixS9+8eLf11577WJERLThkUceOa2u/pKF9SoQZTWC2I+630q9+/K4yMwPVc1PmrPHF0sfNQJtAo6ZNi+lCThmfAYInKyAAONk/Q9dez/A6M8IHxWUu/xjyyd+/OMf7973vvd1t95662JUQXmVmfVPnTq1fByhzAdw0UUXDQYY/Xkn6jrXBRhRd5nHIS7Ur7/++u6666470KZoW9lmlI3goIQVEQxceeWVp82+X/anPG5RAoyyX6seY6nbf8899xyYW2Jse1Ff7dQPRErgUNcboybqsKW/MkH9u/qxkfrfh/4w2QCBYxbI+NKXUccxM9k8gVQBx0wqt8p2QMAxswOdaBdmLSDAmHX3/d8qJGOTGfYvdh999NEDj2jUIyfKRIfl0ZKgiZEK9ZKSmwQY/eX5yvY2CTAiMChBxF133dXdeeedXf34SB1gxEiOGD0SIcd9993XnX/++V0drJRHYOIRlfKKMKcEGGW/+gHGWPtvuummxWbK4xz9AKOupwRH/UCl7o9+gFE/thLvrx8VidEh5dEaAcbMD9o9bn7Gl76MOva4C+36Dgo4ZnawU+3SsQo4Zo6V18YJrBUQYKwlmnaBlkdIxkZglEcsyp6OjSyoR2SMjcDoP7bROgKjPAoSF+8xn8XQRJT9URHxGMnXv/71xQiSeJVQ5oEHHujqwKa/X0MBRn8kRMsIjDroKZb9CU5XBRh1SFF/6oaWsCyjOIzAmPbxqXUHBTK+9GXUoV8J7JKAY2aXetO+ZAg4ZjKU1UFgXECAMfNPR0uAMTYHxtAogWApc2DEv+Pufz0HRB0U1HNg1AFGGQFR3r/JCIwoW88TUT/SUrqqH4rEyIUyyiPaOBRgPPvss4sJL2POilUjMOoAo9/+TefAKHVdfvnlB0aExOM1YwFGfw6MKPfggw8u5u8IUyMwZn6gav5C4H//4NAgQIAAAQKzFnj++edn3X6NJzBnAQHGnHuvmhRvk0dIYlfHViGpV+voP0JyzjnndGW1jrKiSD2yILZbHn+IoOO9733vcmWRG2+8cVFnmaeiP4lnmZTyscceW1ykR2AxtNxq3U317+uwIEZrDLWrrJDy9re/vfviF794YBLRWKmjfpSjrFBSVkap218CiJjwM1YJecMb3tA999xzg6uQlHlHNh2BEftdr0JSHh8Z8qhDkNKf9WomM/9Ia/4OC2TctcqoY4e7yK7toYBjZg873S4fSsAxcyg+byZwaAEBxqEJT3YDx3kSLY+MDD0acZx7XebZGHp85Djrbdn20ASnLe9XlsA+Chzn+ap4ZtSxj31nn3dXwDGzu31rz45HwDFzPK62SmBTAQHGplITLXecJ9HsAKPUF9RlwsopsdejV6JdRj1MqXe0ZQ4Cx3m+EmDM4ROgjVMUyDgup7jf2kRgWwHHzLZy3kfgaAQEGEfjeGJbcRI9MXoVEyDQKJBxvsqoo3G3FScwaQHHzKS7R+MmKOCYmWCnaNJeCQgwZt7dTqIz70DNJ7BHAhnnq4w69qjL7OoeCDhm9qCT7eKRCjhmjpTTxgg0Cwgwmsmm9QYn0Wn1h9YQIDAukHG+yqhDHxPYJQHHzC71pn3JEHDMZCirg8Dq75OLtSy6rnvekkDz+6g4ic6vz7SYwL4KZJyvMurY1/6z37sp4JjZzX61V8cn4Jg5PltbJrCJgBEYmyhNuIyT6IQ7R9MIEDggkHG+KnWUpaVjGeX6VSbf3WTp6Xpp47KNWEI5lpOOZZXj9+9617sWSzPHksf1a2g1pXq56ihblqWu3xeTBcdSzWVZ6aE2lPIf+9jHuosuuqh7//vfv1iqOtoUrzIhciwHHa+6zfH/0Y5PfvKTyzriZ/Vy0v198THebYGM43K3Be3dvgk4Zvatx+3v1AQEGFPrkcb2OIk2gilOgMCJCWScr/oBxk033dS95S1vOXBhH0tDx0X9ZZdd1tW/Lxf3Tz75ZPeJT3xiMKCIYCJeY78vuP0AI0KDBx98cBl+DAUoETxcf/31i01ccMEFXX8p6djGo48+emCVpgg46gCjbPfyyy9fvr8fipQgpV5JSYBxYofFiVeccVye+E5qAIEjFHDMHCGmTRHYQkCAsQXalN7iJDql3tAWAgRWCWScr1YFGNG2EixcccUVWwUYEQbE6IhY6vnxxx/faATG2GiPeltnnXXWIjC56667ughYImSoR1WUcGVdgBHvKwFM3Rf1z0sQ8tRTTy0DHAHG/h67Gcfl/ura810UcMzsYq/apzkJCDDm1FsDbXUSnXkHaj6BPRLIOF+tCjDqIOEwIzDOP//8xeiGTR8hiaDiox/96HL0xViXR7AQr9h2BC2XXHLJcvTIJgHGmWee2V111VWLAKSMOil11W144IEHFiFHbL+EMc8++2x39dVXd7feeutpj8Ps0Ud0L3c147jcS1g7vbMCjpmd7Vo7NhMBAcZMOmqsmU6iM+9AzSewRwIZ56t1c2DEvBEREGw7B8all166fISjJcAoQUGMtBh6lcdHrrvuukWAEIHDI488snhUpbzWPUKyKsCoHzUpAUaEKhF4nDp1qosRKQKMPToYq13NOC73U9Ze76qAY2ZXe9Z+zUVAgDGXnhppp5PozDtQ8wnskUDG+WrdIySFe9MAoz9JZz2S4Tvf+c5Gj5BsMgJj3YSh0e6jDjDKPB4xh8Ztt93W3XLLLUZg7NHxWHY147jcQ1a7vMMCjpkd7ly7NgsBAcYsumm8kU6iM+9AzSewRwIZ56tNA4yyUkf/cYt1k3TWc0VE122yCslYWFLmvLjzzjsXc1HEqx5xMTQR6FHNgVHPkxH1fPe73+1+9KMfCTD26HgUYOxhZ9vlIxHI+Ft2JA21EQI7KiDAmHnHOonOvAM1n8AeCWScrzYNMIK9XLjHhJxlEs0INOIxk5hDYugRkW1GYERdY6uQxGohqyYUrQOLdSMwYhnVTVchqQOM8p5nnnnmwNKqe/TR3OtdzTgu9xrYzu+cgGNm57rUDs1MQIAxsw7rN9dJdOYdqPkE9kgg43zVEmCUEOPuu+9e9sJDDz20nABz6LGOl73sZcuL/FW/v++++7oy2WfZeFm+tPx/mY9j7BGTsv0SqGwSYMS2y+iShx9+eFFVTFga+xUBRwlT+iuV9Jda3aOP5d7vasZxuffIAHZKwDGzU91pZ2YoIMCYYafVTXYSnXkHaj6BPRLIOF9l1LFHXWZX90DAMbMHnWwXj1TAMXOknDZGoFlAgNFMNq03OIlOqz+0hgCBcYGM81VGHfqYwC4JOGZ2qTftS4aAYyZDWR0EVn+f7LruBS/ouu75559/ntXMBJxEZ9ZhmktgjwUyzlcZdexxF9r1HRRwzOxgp9qlYxVwzBwrr40TWCtgBMZaomkXcBKddv9oHQEC/yeQcb7KqEOfEtglAcfMLvWmfckQcMxkKKuDwLiAAGPmnw4n0Zl3oOYT2COBjPNVRh171GV2dQ8EHDN70Ml28UgFHDNHymljBJoFBBjNZNN6g5PotPpDawgQWJ2YH/ejis6JPoEE2gQcM21eShNwzPgMEDhZAQHGyfofunYn0UMT2gABAkkCGeerjDqSuFRDIEXAMZPCrJIdEnDM7FBn2pVZCggwZtlt/9doJ9GZd6DmE9gjgYzzVUYde9RldnUPBBwze9DJdvFIBRwzR8ppYwSaBQ4EGM3v9gYCBAgQIECAAAECBAgQIECAQJ6AZVTzrNVEgAABAgQIECBAgAABAgQItAp4hKRVTHkCBAgQIECAAAECBAgQIEAgXUCAkU6uQgIECBAgQIAAAQIECBAgQKBVQIDRKqY8AQIECBAgQIAAAQIECBAgkC4gwEgnVyEBAgQIECBAgAABAgQIECDQKiDAaBVTngABAgQIECBAgAABAgQIEEgXEGCkk6uQAAECBAgQIECAAAECBAgQaBUQYLSKKU+AAAECBAgQIECAAAECBAikCwgw0slVSIAAAQIECBAgQIAAAQIECLQKCDBaxZQnQIAAAQIECBAgQIAAAQIE0gUEGOnkKiRAgAABAgQIECBAgAABAgRaBQQYrWLKEyBAgAABAgQIECBAgAABAukCAox0chUSIECAAAECBAgQIECAAAECrQICjFYx5QkQIECAAAECBAgQIECAAIF0AQFGOrkKCRAgQIAAAQIECBAgQIAAgVYBAUarmPIECBAgQIAAAQIECBAgQIBAuoAAI51chQQIECBAgAABAgQIECBAgECrgACjVUx5AgQIECBAgAABAgQIECBAIF1AgJFOrkICBAgQIECAAAECBAgQIECgVUCA0SqmPAECBAgQIECAAAECBAgQIJAuIMBIJ1chAQIECBAgQIAAAQIECBAg0CogwGgVU54AAQIECBAgQIAAAQIECBBIFxBgpJOrkAABAgQIECBAgAABAgQIEGgVEGC0iilPgAABAgQIECBAgAABAgQIpAsIMNLJVUiAAAECBAgQIECAAAECBAi0CggwWsWUJ0CAAAECBAgQIECAAAECBNIFBBjp5CokQIAAAQIECBAgQIAAAQIEWgUEGK1iyhMgQIAAAQIECBAgQIAAAQLpAgKMdHIVEiBAgAABAgQIECBAgAABAq0CAoxWMeUJECBAgAABAgQIECBAgACBdAEBRjq5CgkQIECAAAECBAgQIECAAIFWAQFGq5jyBAgQIECAAAECBAgQIECAQLqAACOdXIUECBAgQIAAAQIECBAgQIBAq4AAo1VMeQIECBAgQIAAAQIECBAgQCBdQICRTq5CAgQIECBAgAABAgQIECBAoFVAgNEqpjwBAgQIECBAgAABAgQIECCQLiDASCdXIQECBAgQIECAAAECBAgQINAqIMBoFVOeAAECBAgQIECAAAECBAgQSBcQYKSTq5AAAQIECBAgQIAAAQIECBBoFRBgtIopT4AAAQIECBAgQIAAAQIECKQLCDDSyVVIgAABAgQIECBAgAABAgQItAoIMFrFlCdAgAABAgQIECBAgAABAgTSBQQY6eQqJECAAAECBAgQIECAAAECBFoFBBitYsoTIECAAAECBAgQIECAAAEC6QICjHRyFRIgQIAAAQIECBAgQIAAAQKtAgKMVjHlCRAgQIAAAQIECBAgQIAAgXQBAUY6uQoJECBAgAABAgQIECBAgACBVgEBRquY8gQIECBAgAABAgQIECBAgEC6gAAjnVyFBAgQIECAAAECBAgQIECAQKuAAKNVTHkCBAgQIECAAAECBAgQIEAgXUCAkU6uQgIECBAgQIAAAQIECBAgQKBVQIDRKqY8AQIECBAgQIAAAQIECBAgkC4gwEgnVyEBAgQIECBAgAABAgQIECDQKiDAaBVTngABAgQIECBAgAABAgQIEEgXEGCkk6uQAAECBAgQIECAAAECBAgQaBUQYLSKKU+AAAECBAgQIECAAAECBAikCwgw0slVSIAAAQIECBAgQIAAAQIECLQKCDBaxZQnQIAAAQIECBAgQIAAAQIE0gUEGOnkKiRAgAABAgQIECBAgAABAgRaBQQYrWLKEyBAgAABAgQIECBAgAABAukCAox0chUSIECAAAECBAgQIECAAAECrQICjFYx5QkQIECAAAECBAgQIECAAIF0AQFGOrkKCRAgQIAAAQIECBAgQIAAgVYBAUarmPIECBAgQIAAAQIECBAgQIBAuoAAI51chQQIECBAgAABAgQIECBAgECrgACjVUx5AgQIECBAgAABAgQIECBAIF1AgJFOrkICBAgQIECAAAECBAgQIECgVUCA0SqmPAECBAgQIECAAAECBAgQIJAuIMBIJ1chAQIECBAgQIAAAQIECBAg0CogwGgVU54AAQIECBAgQIAAAQIECBBIFxBgpJOrkAABAgQIECBAgAABAgQIEGgVEGC0iilPgAABAgQIECBAgAABAgQIpAsIMNLJVUiAAAECBAgQIECAAAECBAi0CggwWsWUJ0CAAAECBAgQIECAAAECBNIFBBjp5CokQIAAAQIECBAgQIAAAQIEWgUEGK1iyhMgQIAAAQIECBAgQIAAAQLpAgKMdHIVEiBAgAABAgQIECBAgAABAq0CAoxWMeUJECBAgAABAgQIECBAgACBdAEBRjq5CgkQIECAAAECBAgQIECAAIFWAQFGq5jyBAgQIECAAAECBAgQIECAQLqAACOdXIUECBAgQIAAAQIECBAgQIBAq4AAo1VMeQIECBAgQIAAAQIECBAgQCBdQICRTq5CAgQIECBAgAABAgQIKZApNQAAIABJREFUECBAoFVAgNEqpjwBAgQIECBAgAABAgQIECCQLiDASCdXIQECBAgQIECAAAECBAgQINAqIMBoFVOeAAECBAgQIECAAAECBAgQSBcQYKSTq5AAAQIECBAgQIAAAQIECBBoFRBgtIopT4AAAQIECBAgQIAAAQIECKQLCDDSyVVIgAABAgQIECBAgAABAgQItAoIMFrFlCdAgAABAgQIECBAgAABAgTSBQQY6eQqJECAAAECBAgQIECAAAECBFoFBBitYsoTIECAAAECBAgQIECAAAEC6QICjHRyFRIgQIAAAQIECBAgQIAAAQKtAgKMVjHlCRAgQIAAAQIECBAgQIAAgXQBAUY6uQoJECBAgAABAgQIECBAgACBVgEBRquY8gQIECBAgAABAgQIECBAgEC6gAAjnVyFBAgQIECAAAECBAgQIECAQKuAAKNVTHkCBAgQIECAAAECBAgQIEAgXUCAkU6uQgIECBAgQIAAAQIECBAgQKBVQIDRKqY8AQIECBAgQIAAAQIECBAgkC4gwEgnVyEBAgQIECBAgAABAgQIECDQKiDAaBVTngABAgQIECBAgAABAgQIEEgXEGCkk6uQAAECBAgQIECAAAECBAgQaBUQYLSKKU+AAAECBAgQIECAAAECBAikCwgw0slVSIAAAQIECBAgQIAAAQIECLQKCDBaxZQnQIAAAQIECBAgQIAAAQIE0gUEGOnkKiRAgAABAgQIECBAgAABAgRaBQQYrWLKEyBAgAABAgQIECBAgAABAukCAox0chUSIECAAAECBAgQIECAAAECrQICjFYx5QkQIECAAAECBAgQIECAAIF0AQFGOrkKCRAgQIAAAQIECBAgQIAAgVYBAUarmPIECBAgQIAAAQIECBAgQIBAuoAAI51chQQIECBAgAABAgQIECBAgECrgACjVUx5AgQIECBAgAABAgQIECBAIF1AgJFOrkICBAgQIECAAAECBAgQIECgVUCA0SqmPAECBAgQIECAAAECBAgQIJAuIMBIJ1chAQIECBAgQIAAAQIECBAg0CogwGgVU54AAQIECBAgQIAAAQIECBBIFxBgpJOrkAABAgQIECBAgAABAgQIEGgVEGC0iilPgAABAgQIECBAgAABAgQIpAsIMNLJVUiAAAECBAgQIECAAAECBAi0CggwWsWUJ0CAAAECBAgQIECAAAECBNIFBBjp5CokQIAAAQIECBAgQIAAAQIEWgUEGK1iyhMgQIAAAQIECBAgQIAAAQLpAgKMdHIVEiBAgAABAgQIECBAgAABAq0CAoxWMeUJECBAgAABAgQIECBAgACBdAEBRjq5CgkQIECAAAECBAgQIECAAIFWAQFGq5jyBAgQIECAAAECBAgQIECAQLqAACOdXIUECBAgQIAAAQIECBAgQIBAq4AAo1VMeQIECBAgQIAAAQIECBAgQCBdQICRTq5CAgQIECBAgAABAgQIECBAoFVAgNEqpjwBAgQIECBAgAABAgQIECCQLiDASCdXIQECBAgQIECAAAECBAgQINAqIMBoFVOeAAECBAgQIECAAAECBAgQSBcQYKSTq5AAAQIECBAgQIAAAQIECBBoFRBgtIopT4AAAQIECBAgQIAAAQIECKQLCDDSyVVIgAABAgQIECBAgAABAgQItAoIMFrFlCdAgAABAgQIECBAgAABAgTSBQQY6eQqJECAAAECBAgQIECAAAECBFoFBBitYsoTIECAAAECBAgQIECAAAEC6QICjHRyFRIgQIAAAQIECBAgQIAAAQKtAgKMVjHlCRAgQIAAAQIECBAgQIAAgXQBAUY6uQoJECBAgAABAgQIECBAgACBVgEBRquY8gQIECBAgAABAgQIECBAgEC6gAAjnVyFBAgQIECAAAECBAgQIECAQKuAAKNVTHkCBAgQIECAAAECBAgQIEAgXUCAkU6uQgIECBAgQIAAAQIECBAgQKBVQIDRKqY8AQIECBAgQIAAAQIECBAgkC4gwEgnVyEBAgQIECBAgAABAgQIECDQKiDAaBVTngABAgQIECBAgAABAgQIEEgXEGCkk6uQAAECBAgQIECAAAECBAgQaBUQYLSKKU+AAAECBAgQIECAAAECBAikCwgw0slVSIAAAQIECBAgQIAAAQIECLQKCDBaxZQnQIAAAQIECBAgQIAAAQIE0gUEGOnkKiRAgAABAgQIECBAgAABAgRaBQQYrWLKEyBAgAABAgQIECBAgAABAukCAox0chUSIECAAAECBAgQIECAAAECrQICjFYx5QkQIECAAAECBAgQIECAAIF0AQFGOrkKCRAgQIAAAQIECBAgQIAAgVYBAUarmPIECBAgQIAAAQIECBAgQIBAuoAAI51chQQIECBAgAABAgQIECBAgECrgACjVUx5AgQIECBAgAABAgQIECBAIF1AgJFOrkICBAgQIECAAAECBAgQIECgVUCA0SqmPAECBAgQIECAAAECBAgQIJAuIMBIJ1chAQIECBAgQIAAAQIECBAg0CogwGgVU54AAQIECBAgQIAAAQIECBBIFxBgpJOrkAABAgQIECBAgAABAgQIEGgVEGC0iilPgAABAgQIECBAgAABAgQIpAsIMNLJVUiAAAECBAgQIECAAAECBAi0CggwWsWUJ0CAAAECBAgQIECAAAECBNIFBBjp5CokQIAAAQIECBAgQIAAAQIEWgUEGK1iyhMgQIAAAQIECBAgQIAAAQLpAgKMdHIVEiBAgAABAgQIECBAgAABAq0CAoxWMeUJECBAgAABAgQIECBAgACBdAEBRjq5CgkQIECAAAECBAgQIECAAIFWAQFGq5jyBAgQIECAAAECBAgQIECAQLqAACOdXIUECBAgQIAAAQIECBAgQIBAq4AAo1VMeQIECBAgQIAAAQIECBAgQCBdQICRTq5CAgQIECBAgAABAgQIECBAoFVAgNEqpjwBAgQIECBAgAABAgQIECCQLiDASCdXIQECBAgQIECAAAECBAgQINAqIMBoFVOeAAECBAgQIECAAAECBAgQSBcQYKSTq5AAAQIECBAgQIAAAQIECBBoFRBgtIopT4AAAQIECBAgQIAAAQIECKQLCDDSyVVIgAABAgQIECBAgAABAgQItAoIMFrFlCdAgAABAgQIECBAgAABAgTSBQQY6eQqJECAAAECBAgQIECAAAECBFoFBBitYsoTIECAAAECBAgQIECAAAEC6QICjHRyFRIgQIAAAQIECBAgQIAAAQKtAgKMVjHlCRAgQIAAAQIECBAgQIAAgXQBAUY6uQoJECBAgAABAgQIECBAgACBVgEBRquY8gQIECBAgAABAgQIECBAgEC6gAAjnVyFBAgQIECAAAECBAgQIECAQKuAAKNVTHkCBAgQIECAAAECBAgQIEAgXUCAkU6uQgIECBAgQIAAAQIECBAgQKBVQIDRKqY8AQIECBAgQIAAAQIECBAgkC4gwEgnVyEBAgQIECBAgAABAgQIECDQKiDAaBVTngABAgQIECBAgAABAgQIEEgXEGCkk6uQAAECBAgQIECAAAECBAgQaBUQYLSKKU+AAAECBAgQIECAAAECBAikCwgw0slVSIAAAQIECBAgQIAAAQIECLQKCDBaxZQnQIAAAQIECBAgQIAAAQIE0gUEGOnkKiRAgAABAgQIECBAgAABAgRaBQQYrWLKEyBAgAABAgQIECBAgAABAukCAox0chUSIECAAAECBAgQIECAAAECrQICjFYx5QkQIECAAAECBAgQIECAAIF0AQFGOrkKCRAgQIAAAQIECBAgQIAAgVYBAUarmPIECBAgQIAAAQIECBAgQIBAuoAAI51chQQIECBAgAABAgQIECBAgECrgACjVUx5AgQIECBAgAABAgQIECBAIF1AgJFOrkICBAgQIECAAAECBAgQIECgVUCA0SqmPAECBAgQIECAAAECBAgQIJAuIMBIJ1chAQIECBAgQIAAAQIECBAg0CogwGgVU54AAQIECBAgQIAAAQIECBBIFxBgpJOrkAABAgQIECBAgAABAgQIEGgVEGC0iilPgAABAgQIECBAgAABAgQIpAsIMNLJVUiAAAECBAgQIECAAAECBAi0CggwWsWUJ0CAAAECBAgQIECAAAECBNIFBBjp5CokQIAAAQIECBAgQIAAAQIEWgUEGK1iyhMgQIAAAQIECBAgQIAAAQLpAgKMdHIVEiBAgAABAgQIECBAgAABAq0CAoxWMeUJECBAgAABAgQIECBAgACBdAEBRjq5CgkQIECAAAECBAgQIECAAIFWAQFGq5jyBAgQIECAAAECBAgQIECAQLqAACOdXIUECBAgQIAAAQIECBAgQIBAq4AAo1VMeQIECBAgQIAAAQIECBAgQCBdQICRTq5CAgQIECBAgAABAgQIECBAoFVAgNEqpjwBAgQIECBAgAABAgQIECCQLiDASCdXIQECBAgQIECAAAECBAgQINAqIMBoFVOeAAECBAgQIECAAAECBAgQSBcQYKSTq5AAAQIECBAgQIAAAQIECBBoFRBgtIopT4AAAQIECBAgQIAAAQIECKQLCDDSyVVIgAABAgQIECBAgAABAgQItAoIMFrFlCdAgAABAgQIECBAgAABAgTSBQQY6eQqJECAAAECBAgQIECAAAECBFoFBBitYsoTIECAAAECBAgQIECAAAEC6QICjHRyFRIgQIAAAQIECBAgQIAAAQKtAgKMVjHlCRAgQIAAAQIECBAgQIAAgXQBAUY6uQoJECBAgAABAgQIECBAgACBVgEBRquY8gQIECBAgAABAgQIECBAgEC6gAAjnVyFBAgQIECAAAECBAgQIECAQKuAAKNVTHkCBAgQIECAAAECBAgQIEAgXUCAkU6uQgIECBAgQIAAAQIECBAgQKBVQIDRKqY8AQIECBAgQIAAAQIECBAgkC4gwEgnVyEBAgQIECBAgAABAgQIECDQKiDAaBVTngABAgQIECBAgAABAgQIEEgXEGCkk6uQAAECBAgQIECAAAECBAgQaBUQYLSKKU+AAAECBAgQIECAAAECBAikCwgw0slVSIAAAQIECBAgQIAAAQIECLQKCDBaxZQnQIAAAQIECBAgQIAAAQIE0gUEGOnkKiRAgAABAgQIECBAgAABAgRaBQQYrWLKEyBAgAABAgQIECBAgAABAukCAox0chUSIECAAAECBAgQIECAAAECrQICjFYx5QkQIECAAAECBAgQIECAAIF0AQFGOrkKCRAgQIAAAQIECBAgQIAAgVYBAUarmPIECBAgQIAAAQIECBAgQIBAuoAAI51chQQIECBAgAABAgQIECBAgECrgACjVUx5AgQIECBAgAABAgQIECBAIF1AgJFOrkICBAgQIECAAAECBAgQIECgVUCA0SqmPAECBAgQIECAAAECBAgQIJAuIMBIJ1chAQIECBAgQIAAAQIECBAg0CogwGgVU54AAQIECBAgQIAAAQIECBBIFxBgpJOrkAABAgQIECBAgAABAgQIEGgVEGC0iilPgAABAgQIECBAgAABAgQIpAsIMNLJVUiAAAECBAgQIECAAAECBAi0CggwWsWUJ0CAAAECBAgQIECAAAECBNIFBBjp5CokQIAAAQIECBAgQIAAAQIEWgUEGK1iyhMgQIAAAQIECBAgQIAAAQLpAgKMdHIVEiBAgAABAgQIECBAgAABAq0CAoxWMeUJECBAgAABAgQIECBAgACBdAEBRjq5CgkQIECAAAECBAgQIECAAIFWAQFGq5jyBAgQIECAAAECBAgQIECAQLqAACOdXIUECBAgQIAAAQIECBAgQIBAq4AAo1VMeQIECBAgQIAAAQIECBAgQCBdQICRTq5CAgQIECBAgAABAgQIECBAoFVAgNEqpjwBAgQIECBAgAABAgQIECCQLiDASCdXIQECBAgQIECAAAECBAgQINAqIMBoFVOeAAECBAgQIECAAAECBAgQSBcQYKSTq5AAAQIECBAgQIAAAQIECBBoFRBgtIopT4AAAQIECBAgQIAAAQIECKQLCDDSyVVIgAABAgQIECBAgAABAgQItAoIMFrFlCdAgAABAgQIECBAgAABAgTSBQQY6eQqJECAAAECBAgQIECAAAECBFoFBBitYsoTIECAAAECBAgQIECAAAEC6QICjHRyFRIgQIAAAQIECBAgQIAAAQKtAgKMVjHlCRAgQIAAAQIECBAgQIAAgXQBAUY6uQoJECBAgAABAgQIECBAgACBVgEBRquY8gQIECBAgAABAgQIECBAgEC6gAAjnVyFBAgQIECAAAECBAgQIECAQKuAAKNVTHkCBAgQIECAAAECBAgQIEAgXUCAkU6uQgIECBAgQIAAAQIECBAgQKBVQIDRKqY8AQIECBAgQIAAAQIECBAgkC4gwEgnVyEBAgQIECBAgAABAgQIECDQKiDAaBVTngABAgQIECBAgAABAgQIEEgXEGCkk6uQAAECBAgQIECAAAECBAgQaBUQYLSKKU+AAAECBAgQIECAAAECBAikCwgw0slVSIAAAQIECBAgQIAAAQIECLQKCDBaxZQnQIAAAQIECBAgQIAAAQIE0gUEGOnkKiRAgAABAgQIECBAgAABAgRaBQQYrWLKEyBAgAABAgQIECBAgAABAukCAox0chUSIECAAAECBAgQIECAAAECrQICjFYx5QkQIECAAAECBAgQIECAAIF0AQFGOrkKCRAgQIAAAQIECBAgQIAAgVYBAUarmPIECBAgQIAAAQIECBAgQIBAuoAAI51chQQIECBAgAABAgQIECBAgECrgACjVUx5AgQIECBAgAABAgQIECBAIF1AgJFOrkICBAgQIECAAAECBAgQIECgVUCA0SqmPAECBAgQIECAAAECBAgQIJAuIMBIJ1chAQIECBAgQIAAAQIECBAg0CogwGgVU54AAQIECBAgQIAAAQIECBBIFxBgpJOrkAABAgQIECBAgAABAgQIEGgVEGC0iilPgAABAgQIECBAgAABAgQIpAsIMNLJVUiAAAECBAgQIECAAAECBAi0CggwWsWUJ0CAAAECBAgQIECAAAECBNIFBBjp5CokQIAAAQIECBAgQIAAAQIEWgUEGK1iyhMgQIAAAQIECBAgQIAAAQLpAgKMdHIVEiBAgAABAgQIECBAgAABAq0CAoxWMeUJECBAgAABAgQIECBAgACBdAEBRjq5CgkQIECAAAECBAgQIECAAIFWAQFGq5jyBAgQIECAAAECBAgQIECAQLqAACOdXIUECBAgQIAAAQIECBAgQIBAq4AAo1VMeQIECBAgQIAAAQIECBAgQCBdQICRTq5CAgQIECBAgAABAgQIECBAoFVAgNEqpjwBAgQIECBAgAABAgQIECCQLiDASCdXIQECBAgQIECAAAECBAgQINAqIMBoFVOeAAECBAgQIECAAAECBAgQSBcQYKSTq5AAAQIECBAgQIAAAQIECBBoFRBgtIopT4AAAQIECBAgQIAAAQIECKQLCDDSyVVIgAABAgQIECBAgAABAgQItAoIMFrFlCdAgAABAgQIECBAgAABAgTSBQQY6eQqJECAAAECBAgQIECAAAECBFoFBBitYsoTIECAAAECBAgQIECAAAEC6QICjHRyFRIgQIAAAQIECBAgQIAAAQKtAgKMVjHlCRAgQIAAAQIECBAgQIAAgXQBAUY6uQoJECBAgAABAgQIECBAgACBVgEBRquY8gQIECBAgAABAgQIECBAgEC6gAAjnVyFBAgQIECAAAECBAgQIECAQKuAAKNVTHkCBAgQIECAAAECBAgQIEAgXUCAkU6uQgIECBAgQIAAAQIECBAgQKBVQIDRKqY8AQIECBAgQIAAAQIECBAgkC4gwEgnVyEBAgQIECBAgAABAgQIECDQKiDAaBVTngABAgQIECBAgAABAgQIEEgXEGCkk6uQAAECBAgQIECAAAECBAgQaBUQYLSKKU+AAAECBAgQIECAAAECBAikCwgw0slVSIAAAQIECBAgQIAAAQIECLQKCDBaxZQnQIAAAQIECBAgQIAAAQIE0gUEGOnkKiRAgAABAgQIECBAgAABAgRaBQQYrWLKEyBAgAABAgQIECBAgAABAukCAox0chUSIECAAAECBAgQIECAAAECrQICjFYx5QkQIECAAAECBAgQIECAAIF0AQFGOrkKCRAgQIAAAQIECBAgQIAAgVYBAUarmPIECBAgQIAAAQIECBAgQIBAuoAAI51chQQIECBAgAABAgQIECBAgECrgACjVUx5AgQIECBAgAABAgQIECBAIF1AgJFOrkICBAgQIECAAAECBAgQIECgVUCA0SqmPAECBAgQIECAAAECBAgQIJAuIMBIJ1chAQIECBAgQIAAAQIECBAg0CogwGgVU54AAQIECBAgQIAAAQIECBBIFxBgpJOrkAABAgQIECBAgAABAgQIEGgVEGC0iilPgAABAgQIECBAgAABAgQIpAsIMNLJVUiAAAECBAgQIECAAAECBAi0CggwWsWUJ0CAAAECBAgQIECAAAECBNIFBBjp5CokQIAAAQIECBAgQIAAAQIEWgUEGK1iyhMgQIAAAQIECBAgQIAAAQLpAgKMdHIVEiBAgAABAgQIECBAgAABAq0CAoxWMeUJECBAgAABAgQIECBAgACBdAEBRjq5CgkQIECAAAECBAgQIECAAIFWAQFGq5jyBAgQIECAAAECBAgQIECAQLqAACOdXIUECBAgQIAAAQIECBAgQIBAq4AAo1VMeQIECBAgQIAAAQIECBAgQCBdQICRTq5CAgQIECBAgAABAgQIECBAoFVAgNEqpjwBAgQIECBAgAABAgQIECCQLiDASCdXIQECBAgQIECAAAECBAgQINAqIMBoFVOeAAECBAgQIECAAAECBAgQSBcQYKSTq5AAAQIECBAgQIAAAQIECBBoFRBgtIopT4AAAQIECBAgQIAAAQIECKQLCDDSyVVIgAABAgQIECBAgAABAgQItAoIMFrFlCdAgAABAgQIECBAgAABAgTSBQQY6eQqJECAAAECBAgQIECAAAECBFoFBBitYsoTIECAAAECBAgQIECAAAEC6QICjHRyFRIgQIAAAQIECBAgQIAAAQKtAgKMVjHlCRAgQIAAAQIECBAgQIAAgXQBAUY6uQoJECBAgAABAgQIECBAgACBVgEBRquY8gQIECBAgAABAgQIECBAgEC6gAAjnVyFBAgQIECAAAECBAgQIECAQKuAAKNVTHkCBAgQIECAAAECBAgQIEAgXUCAkU6uQgIECBAgQIAAAQIECBAgQKBVQIDRKqY8AQIECBAgQIAAAQIECBAgkC4gwEgnVyEBAgQIECBAgAABAgQIECDQKiDAaBVTngABAgQIECBAgAABAgQIEEgXEGCkk6uQAAECBAgQIECAAAECBAgQaBUQYLSKKU+AAAECBAgQIECAAAECBAikCwgw0slVSIAAAQIECBAgQIAAAQIECLQKCDBaxZQnQIAAAQIECBAgQIAAAQIE0gUEGOnkKiRAgAABAgQIECBAgAABAgRaBQQYrWLKEyBAgAABAgQIECBAgAABAukCAox0chUSIECAAAECBAgQIECAAAECrQICjFYx5QkQIECAAAECBAgQIECAAIF0AQFGOrkKCRAgQIAAAQIECBAgQIAAgVYBAUarmPIECBAgQIAAAQIECBAgQIBAuoAAI51chQQIECBAgAABAgQIECBAgECrgACjVUx5AgQIECBAgAABAgQIECBAIF1AgJFOrkICBAgQIECAAAECBAgQIECgVUCA0SqmPAECBAgQIECAAAECBAgQIJAuIMBIJ1chAQIECBAgQIAAAQIECBAg0CogwGgVU54AAQIECBAgQIAAAQIECBBIFxBgpJOrkAABAgQIECBAgAABAgQIEGgVEGC0iilPgAABAgQIECBAgAABAgQIpAsIMNLJVUiAAAECBAgQIECAAAECBAi0CggwWsWUJ0CAAAECBAgQIECAAAECBNIFBBjp5CokQIAAAQIECBAgQIAAAQIEWgUEGK1iyhMgQIAAAQIECBAgQIAAAQLpAgKMdHIVEiBAgAABAgQIECBAgAABAq0CAoxWMeUJECBAgAABAgQIECBAgACBdAEBRjq5CgkQIECAAAECBAgQIECAAIFWAQFGq5jyBAgQIECAAAECBAgQIECAQLqAACOdXIUECBAgQIAAAQIECBAgQIBAq4AAo1VMeQIECBAgQIAAAQIECBAgQCBdQICRTq5CAgQIECBAgAABAgQIECBAoFVAgNEqpjwBAgQIECBAgAABAgQIECCQLiDASCdXIQECBAgQIECAAAECBAgQINAqIMBoFVOeAAECBAgQIECAAAECBAgQSBcQYKSTq5AAAQIECBAgQIAAAQIECBBoFRBgtIopT4AAAQIECBAgQIAAAQIECKQLCDDSyVVIgAABAgQIECBAgAABAgQItAoIMFrFlCdAgAABAgQIECBAgAABAgTSBQQY6eQqJECAAAECBAgQIECAAAECBFoFBBitYsoTIECAAAECBAgQIECAAAEC6QICjHRyFRIgQIAAAQIECBAgQIAAAQKtAgKMVjHlCRAgQIAAAQIECBAgQIAAgXQBAUY6uQoJECBAgAABAgQIECBAgACBVgEBRquY8gQIECBAgAABAgQIECBAgEC6gAAjnVyFBAgQIECAAAECBAgQIECAQKuAAKNVTHkCBAgQIECAAAECBAgQIEAgXUCAkU6uQgIECBAgQIAAAQIECBAgQKBVQIDRKqY8AQIECBAgQIAAAQIECBAgkC4gwEgnVyEBAgQIECBAgAABAgQIECDQKiDAaBVTngABAgQIECBAgAABAgQIEEgXEGCkk6uQAAECBAgQIECAAAECBAgQaBUQYLSKKU+AAAECBAgQIECAAAECBAguT2NLAAAgAElEQVSkCwgw0slVSIAAAQIECBAgQIAAAQIECLQKCDBaxZQnQIAAAQIECBAgQIAAAQIE0gUEGOnkKiRAgAABAgQIECBAgAABAgRaBQQYrWLKEyBAgAABAgQIECBAgAABAukCAox0chUSIECAAAECBAgQIECAAAECrQICjFYx5QkQIECAAAECBAgQIECAAIF0AQFGOrkKCRAgQIAAAQIECBAgQIAAgVYBAUarmPIECBAgQIAAAQIECBAgQIBAuoAAI51chQQIECBAgAABAgQIECBAgECrgACjVUx5AgQIECBAgAABAgQIECBAIF1AgJFOrkICBAgQIECAAAECBAgQIECgVUCA0SqmPAECBAgQIECAAAECBAgQIJAuIMBIJ1chAQIECBAgQIAAAQIECBAg0CogwGgVU54AAQIECBAgQIAAAQIECBBIFxBgpJOrkAABAgQIECBAgAABAgQIEGgVEGC0iilPgAABAgQIECBAgAABAgQIpAsIMNLJVUiAAAECBAgQIECAAAECBAi0CggwWsWUJ0CAAAECBAgQIECAAAECBNIFBBjp5CokQIAAAQIECBAgQIAAAQIEWgUEGK1iyhMgQIAAAQIECBAgQIAAAQLpAgKMdHIVEiBAgAABAgQIECBAgAABAq0CAoxWMeUJECBAgAABAgQIECBAgACBdAEBRjq5CgkQIECAAAECBAgQIECAAIFWAQFGq5jyBAgQIECAAAECBAgQIECAQLqAACOdXIUECBAgQIAAAQIECBAgQIBAq4AAo1VMeQIECBAgQIAAAQIECBAgQCBdQICRTq5CAgQIECBAgAABAgQIECBAoFVAgNEqpjwBAgQIECBAgAABAgQIECCQLiDASCdXIQECBAgQIECAAAECBAgQINAqIMBoFVOeAAECBAgQIECAAAECBAgQSBcQYKSTq5AAAQIECBAgQIAAAQIECBBoFRBgtIopT4AAAQIECBAgQIAAAQIECKQLCDDSyVVIgAABAgQIECBAgAABAgQItAoIMFrFlCdAgAABAgQIECBAgAABAgTSBQQY6eQqJECAAAECBAgQIECAAAECBFoFBBitYsoTIECAAAECBAgQIECAAAEC6QICjHRyFRIgQIAAAQIECBAgQIAAAQKtAgKMVjHlCRAgQIAAAQIECBAgQIAAgXQBAUY6uQoJECBAgAABAgQIECBAgACBVgEBRquY8gQIECBAgAABAgQIECBAgEC6gAAjnVyFBAgQIECAAAECBAgQIECAQKuAAKNVTHkCBAgQIECAAAECBAgQIEAgXUCAkU6uQgIECBAgQIAAAQIECBAgQKBVQIDRKqY8AQIECBAgQIAAAQIECBAgkC4gwEgnVyEBAgQIECBAgAABAgQIECDQKiDAaBVTngABAgQIECBAgAABAgQIEEgXEGCkk6uQAAECBAgQIECAAAECBAgQaBUQYLSKKU+AAAECBAgQIECAAAECBAikCwgw0slVSIAAAQIECBAgQIAAAQIECLQKCDBaxZQnQIAAAQIECBAgQIAAAQIE0gUEGOnkKiRAgAABAgQIECBAgAABAgRaBQQYrWLKEyBAgAABAgQIECBAgAABAukCAox0chUSIECAAAECBAgQIECAAAECrQICjFYx5QkQIECAAAECBAgQIECAAIF0AQFGOrkKCRAgQIAAAQIECBAgQIAAgVYBAUarmPIECBAgQIAAAQIECBAgQIBAuoAAI51chQQIECBAgAABAgQIECBAgECrgACjVUx5AgQIECBAgAABAgQIECBAIF1AgJFOrkICBAgQIECAAAECBAgQIECgVUCA0SqmPAECBAgQIECAAAECBAgQIJAuIMBIJ1chAQIECBAgQIAAAQIECBAg0CogwGgVU54AAQIECBAgQIAAAQIECBBIFxBgpJOrkAABAgQIECBAgAABAgQIEGgVEGC0iilPgAABAgQIECBAgAABAgQIpAsIMNLJVUiAAAECBAgQIECAAAECBAi0CggwWsWUJ0CAAAECBAgQIECAAAECBNIFBBjp5CokQIAAAQIECBAgQIAAAQIEWgUEGK1iyhMgQIAAAQIECBAgQIAAAQLpAgKMdHIVEiBAgAABAgQIECBAgAABAq0CAoxWMeUJECBAgAABAgQIECBAgACBdAEBRjq5CgkQIECAAAECBAgQIECAAIFWAQFGq5jyBAgQIECAAAECBAgQIECAQLqAACOdXIUECBAgQIAAAQIECBAgQIBAq4AAo1VMeQIECBAgQIAAAQIECBAgQCBdQICRTq5CAgQIECBAgAABAgQIECBAoFVAgNEqpjwBAgQIECBAgAABAgQIECCQLiDASCdXIQECBAgQIECAAAECBAgQINAqIMBoFVOeAAECBAgQIECAAAECBAgQSBcQYKSTq5AAAQIECBAgQIAAAQIECBBoFRBgtIopT4AAAQIECBAgQIAAAQIECKQLCDDSyVVIgAABAgQIECBAgAABAgQItAoIMFrFlCdAgAABAgQIECBAgAABAgTSBQQY6eQqJECAAAECBAgQIECAAAECBFoFBBitYsoTIECAAAECBAgQIECAAAEC6QICjHRyFRIgQIAAAQIECBAgQIAAAQKtAgKMVjHlCRAgQIAAAQIECBAgQIAAgXQBAUY6uQoJECBAgAABAgQIECBAgACBVgEBRquY8gQIECBAgAABAgQIECBAgEC6gAAjnVyFBAgQIECAAAECBAgQIECAQKuAAKNVTHkCBAgQIECAAAECBAgQIEAgXUCAkU6uQgIECBAgQIAAAQIECBAgQKBVQIDRKqY8AQIECBAgQIAAAQIECBAgkC4gwEgnVyEBAgQIECBAgAABAgQIECDQKiDAaBVTngABAgQIECBAgAABAgQIEEgXEGCkk6uQAAECBAgQIECAAAECBAgQaBUQYLSKKU+AAAECBAgQIECAAAECBAikCwgw0slVSIAAAQIECBAgQIAAAQIECLQKCDBaxZQnQIAAAQIECBAgQIAAAQIE0gUEGOnkKiRAgAABAgQI/P/27gRYlqqwH3BbRDSggPsGUXgGUbFccAMRBIWAKRRZFFBZFBEBcQUxliyCiiguKAgaA4qKglIQYjAiixARBZeggjFsUTZFRcHdGP716799M3fe3HvnvLm3X8/MN1UU8N6ZPqe/0/dO92/OQoAAAQIECBAoFRBglIopT4AAAQIECBAgQIAAAQIECLQuIMBonVyFBAgQIECAAAECBAgQIECAQKmAAKNUTHkCBAgQIECAAAECBAgQIECgdQEBRuvkKiRAgAABAgQIECBAgAABAgRKBQQYpWLKEyBAgAABAgQIECBAgAABAq0LCDBaJ1chAQIECBAgQIAAAQIECBAgUCogwCgVU54AAQIECBAgQIAAAQIECBBoXUCA0Tq5CgkQIECAAAECBAgQIECAAIFSAQFGqZjyBAgQIECAAAECBAgQIECAQOsCAozWyVVIgAABAgQIECBAgAABAgQIlAoIMErFlCdAgAABAgQIECBAgAABAgRaFxBgtE6uQgIECBAgQIAAAQIECBAgQKBUQIBRKqY8AQIECBAgQIAAAQIECBAg0LqAAKN1chUSIECAAAECBAgQIECAAAECpQICjFIx5QkQIECAAAECBAgQIECAAIHWBQQYrZOrkAABAgQIECBAgAABAgQIECgVEGCUiilPgAABAgQIECBAgAABAgQItC4gwGidXIUECBAgQIAAAQIECBAgQIBAqYAAo1RMeQIECBAgQIAAAQIECBAgQKB1AQFG6+QqJECAAAECBAgQIECAAAECBEoFBBilYsoTIECAAAECBAgQIECAAAECrQsIMFonVyEBAgQIECBAgAABAgQIECBQKiDAKBVTngABAgQIECBAgAABAgQIEGhdQIDROrkKCRAgQIAAAQIECBAgQIAAgVIBAUapmPIECBAgQIAAAQIECBAgQIBA6wICjNbJVUiAAAECBAgQIECAAAECBAiUCggwSsWUJ0CAAAECBAgQIECAAAECBFoXEGC0Tq5CAgQIECBAgAABAgQIECBAoFRAgFEqpjwBAgQIECBAgAABAgQIECDQuoAAo3VyFRIgQIAAAQIECBAgQIAAAQKlAgKMUjHlCRAgQIAAAQIECBAgQIAAgdYFBBitk6uQAAECBAgQIECAAAECBAgQKBUQYJSKKU+AAAECBAgQIECAAAECBAi0LiDAaJ1chQQIECBAgAABAgQIECBAgECpgACjVEx5AgQIECBAgAABAgQIECBAoHUBAUbr5CokQIAAAQIECBAgQIAAAQIESgUEGKViyhMgQIAAAQIECBAgQIAAAQKtCwgwWidXIQECBAgQIECAAAECBAgQIFAqIMAoFVOeAAECBAgQIECAAAECBAgQaF1AgNE6uQoJECBAgAABAgQIECBAgACBUgEBRqmY8gQIECBAgAABAgQIECBAgEDrAgKM1slVSIAAAQIECBAgQIAAAQIECJQKCDBKxZQnQIAAAQIECBAgQIAAAQIEWhcQYLROrkICBAgQIECAAAECBAgQIECgVECAUSqmPAECBAgQIECAAAECBAgQINC6gACjdXIVEiBAgAABAgQIECBAgAABAqUCAoxSMeUJECBAgAABAgQIECBAgACB1gUEGK2Tq5AAAQIECBAgQIAAAQIECBAoFRBglIopT4AAAQIECBAgQIAAAQIECLQuIMBonVyFBAgQIECAAAECBAgQIECAQKmAAKNUTHkCBAgQIECAAAECBAgQIECgdQEBRuvkKiRAgAABAgQIECBAgAABAgRKBQQYpWLKEyBAgAABAgQIECBAgAABAq0LCDBaJ1chAQIECBAgQIAAAQIECBAgUCogwCgVU54AAQIECBAgQIAAAQIECBBoXUCA0Tq5CgkQIECAAAECBAgQIECAAIFSAQFGqZjyBAgQIECAAAECBAgQIECAQOsCAozWyVVIgAABAgQIECBAgAABAgQIlAoIMErFlCdAgAABAgQIECBAgAABAgRaFxBgtE6uQgIECBAgQIAAAQIECBAgQKBUQIBRKqY8AQIECBAgQIAAAQIECBAg0LqAAKN1chUSIECAAAECBAgQIECAAAECpQICjFIx5QkQIECAAAECBAgQIECAAIHWBQQYrZOrkAABAgQIECBAgAABAgQIECgVEGCUiilPgAABAgQIECBAgAABAgQItC4gwGidXIUECBAgQIAAAQIECBAgQIBAqYAAo1RMeQIECBAgQIAAAQIECBAgQKB1AQFG6+QqJECAAAECBAgQIECAAAECBEoFBBilYsoTIECAAAECBAgQIECAAAECrQsIMFonVyEBAgQIECBAgAABAgQIECBQKiDAKBVTngABAgQIECBAgAABAgQIEGhdQIDROrkKCRAgQIAAAQIECBAgQIAAgVIBAUapmPIECBAgQIAAAQIECBAgQIBA6wICjNbJVUiAAAECBAgQIECAAAECBAiUCggwSsWUJ0CAAAECBAgQIECAAAECBFoXEGC0Tq5CAgQIECBAgAABAgQIECBAoFRAgFEqpjwBAgQIECBAgAABAgQIECDQuoAAo3VyFRIgQIAAAQIECBAgQIAAAQKlAgKMUjHlCRAgQIAAAQIECBAgQIAAgdYFBBitk6uQAAECBAgQIECAAAECBAgQKBUQYJSKKU+AAAECBAgQIECAAAECBAi0LiDAaJ1chQQIECBAgAABAgQIECBAgECpgACjVEx5AgQIECBAgAABAgQIECBAoHUBAUbr5CokQIAAAQIECBAgQIAAAQIESgUEGKViyhMgQIAAAQIECBAgQIAAAQKtCwgwWidXIQECBAgQIECAAAECBAgQIFAqIMAoFVOeAAECBAgQIECAAAECBAgQaF1AgNE6uQoJECBAgAABAgQIECBAgACBUgEBRqmY8gQIECBAgAABAgQIECBAgEDrAgKM1slVSIAAAQIECBAgQIAAAQIECJQKCDBKxZQnQIAAAQIECBAgQIAAAQIEWhcQYLROrkICBAgQIECAAAECBAgQIECgVECAUSqmPAECBAgQIECAAAECBAgQINC6gACjdXIVEiBAgAABAgQIECBAgAABAqUCAoxSMeUJECBAgAABAgQIECBAgACB1gUEGK2Tq5AAAQIECBAgQIAAAQIECBAoFRBglIopT4AAAQIECBAgQIAAAQIECLQuIMBonVyFBAgQIECAAAECBAgQIECAQKmAAKNUTHkCBAgQIECAAAECBAgQIECgdQEBRuvkKiRAgAABAgQIECBAgAABAgRKBQQYpWLKEyBAgAABAgQIECBAgAABAq0LCDBaJ1chAQIECBAgQIAAAQIECBAgUCogwCgVU54AAQIECBAgQIAAAQIECBBoXUCA0Tq5CgkQIECAAAECBAgQIECAAIFSAQFGqZjyBAgQIECAAAECBAgQIECAQOsCAozWyVVIgAABAgQIECBAgAABAgQIlAoIMErFlCdAgAABAgQIECBAgAABAgRaFxBgtE6uQgIECBAgQIAAAQIECBAgQKBUQIBRKqY8AQIECBAgQIAAAQIECBAg0LqAAKN1chUSIECAAAECBAgQIECAAAECpQICjFIx5QkQIECAAAECBAgQIECAAIHWBQQYrZOrkAABAgQIECBAgAABAgQIECgVEGCUiilPgAABAgQIECBAgAABAgQItC4gwGidXIUECBAgQIAAAQIECBAgQIBAqYAAo1RMeQIECBAgQIAAAQIECBAgQKB1AQFG6+QqJECAAAECBAgQIECAAAECBEoFBBilYsoTIECAAAECBAgQIECAAAECrQsIMFonVyEBAgQIECBAgAABAgQIECBQKiDAKBVTngABAgQIECBAgAABAgQIEGhdQIDROrkKCRAgQIAAAQIECBAgQIAAgVIBAUapmPIECBAgQIAAAQIECBAgQIBA6wICjNbJVUiAAAECBAgQIECAAAECBAiUCggwSsWUJ0CAAAECBAgQIECAAAECBFoXEGC0Tq5CAgQIECBAgAABAgQIECBAoFRAgFEqpjwBAgQIECBAgAABAgQIECDQuoAAo3VyFRIgQIAAAQIECBAgQIAAAQKlAgKMUjHlCRAgQIAAAQIECBAgQIAAgdYFBBitk6uQAAECBAgQIECAAAECBAgQKBUQYJSKKU+AAAECBAgQIECAAAECBAi0LiDAaJ1chQQIECBAgAABAgQIECBAgECpgACjVEx5AgQIECBAgAABAgQIECBAoHUBAUbr5CokQIAAAQIECBAgQIAAAQIESgUEGKViyhMgQIAAAQIECBAgQIAAAQKtCwgwWidXIQECBAgQIECAAAECBAgQIFAqIMAoFVOeAAECBAgQIECAAAECBAgQaF1AgNE6uQoJECBAgAABAgQIECBAgACBUgEBRqmY8gQIECBAgAABAgQIECBAgEDrAgKM1slVSIAAAQIECBAgQIAAAQIECJQKCDBKxZQnQIAAAQIECBAgQIAAAQIEWhcQYLROrkICBAgQIECAAAECBAgQIECgVECAUSqmPAECBAgQIECAAAECBAgQINC6gACjdXIVEiBAgAABAgQIECBAgAABAqUCAoxSMeUJECBAgAABAgQIECBAgACB1gUEGK2Tq5AAAQIECBAgQIAAAQIECBAoFRBglIopT4AAAQIECBAgQIAAAQIECLQuIMBonVyFBAgQIECAAAECBAgQIECAQKmAAKNUTHkCBAgQIECAAAECBAgQIECgdQEBRuvkKiRAgAABAgQIECBAgAABAgRKBQQYpWLKEyBAgAABAgQIECBAgAABAq0LCDBaJ1chAQIECBAgQIAAAQIECBAgUCogwCgVU54AAQIECBAgQIAAAQIECBBoXUCA0Tq5CgkQIECAAAECBAgQIECAAIFSAQFGqZjyBAgQIECAAAECBAgQIECAQOsCAozWyVVIgAABAgQIECBAgAABAgQIlAoIMErFlCdAgAABAgQIECBAgAABAgRaFxBgtE6uQgIECBAgQIAAAQIECBAgQKBUQIBRKqY8AQIECBAgQIAAAQIECBAg0LqAAKN1chUSIECAAAECBAgQIECAAAECpQICjFIx5QkQIECAAAECBAgQIECAAIHWBQQYrZOrkAABAgQIECBAgAABAgQIECgVEGCUiilPgAABAgQIECBAgAABAgQItC4gwGidXIUECBAgQIAAAQIECBAgQIBAqYAAo1RMeQIECBAgQIAAAQIECBAgQKB1AQFG6+QqJECAAAECBAgQIECAAAECBEoFBBilYsoTIECAAAECBAgQIECAAAECrQsIMFonVyEBAgQIECBAgAABAgQIECBQKiDAKBVTngABAgQIECBAgAABAgQIEGhdQIDROrkKCRAgQIAAAQIECBAgQIAAgVIBAUapmPIECBAgQIAAAQIECBAgQIBA6wICjNbJVUiAAAECBAgQIECAAAECBAiUCggwSsWUJ0CAAAECBAgQIECAAAECBFoXEGC0Tq5CAgQIECBAgAABAgQIECBAoFRAgFEqpjwBAgQIECBAgAABAgQIECDQuoAAo3VyFRIgQIAAAQIECBAgQIAAAQKlAgKMUjHlCRAgQIAAAQIECBAgQIAAgdYFBBitk6uQAAECBAgQIECAAAECBAgQKBUQYJSKKU+AAAECBAgQIECAAAECBAi0LiDAaJ1chQQIECBAgAABAgQIECBAgECpgACjVEx5AgQIECBAgAABAgQIECBAoHUBAUbr5CokQIAAAQIECBAgQIAAAQIESgUEGKViyhMgQIAAAQIECBAgQIAAAQKtCwgwWidXIQECBAgQIECAAAECBAgQIFAqIMAoFVOeAAECBAgQIECAAAECBAgQaF1AgNE6uQoJECBAgAABAgQIECBAgACBUgEBRqmY8gQIECBAgAABAgQIECBAgEDrAgKM1slVSIAAAQIECBAgQIAAAQIECJQKCDBKxZQnQIAAAQIECBAgQIAAAQIEWhcQYLROrkICBAgQIECAAAECBAgQIECgVECAUSqmPAECBAgQIECAAAECBAgQINC6gACjdXIVEiBAgAABAgQIECBAgAABAqUCAoxSMeUJECBAgAABAgQIECBAgACB1gUEGK2Tq5AAAQIECBAgQIAAAQIECBAoFRBglIopT4AAAQIECBAgQIAAAQIECLQuIMBonVyFBAgQIECAAAECBAgQIECAQKmAAKNUTHkCBAgQIECAAAECBAgQIECgdQEBRuvkKiRAgAABAgQIECBAgAABAgRKBQQYpWLKEyBAgAABAgQIECBAgAABAq0LCDBaJ1chAQIECBAgQIAAAQIECBAgUCogwCgVU54AAQIECBAgQIAAAQIECBBoXUCA0Tq5CgkQIECAAAECBAgQIECAAIFSAQFGqZjyBAgQIECAAAECBAgQIECAQOsCAozWyVVIgAABAgQIECBAgAABAgQIlAoIMErFlCdAgAABAgQIECBAgAABAgRaFxBgtE6uQgIECBAgQIAAAQIECBAgQKBUQIBRKqY8AQIECBAgQIAAAQIECBAg0LqAAKN1chUSIECAAAECBAgQIECAAAECpQICjFIx5QkQIECAAAECBAgQIECAAIHWBQQYrZOrkAABAgQIECBAgAABAgQIECgVEGCUiilPgAABAgQIECBAgAABAgQItC4gwGidXIUECBAgQIAAAQIECBAgQIBAqYAAo1RMeQIECBAgQIAAAQIECBAgQKB1AQFG6+QqJECAAAECBAgQIECAAAECBEoFBBilYsoTIECAAAECBAgQIECAAAECrQsIMFonVyEBAgQIECBAgAABAgQIECBQKiDAKBVTngABAgQIECBAgAABAgQIEGhdQIDROrkKCRAgQIAAAQIECBAgQIAAgVIBAUapmPIECBAgQIAAAQIECBAgQIBA6wICjNbJVUiAAAECBAgQIECAAAECBAiUCggwSsWUJ0CAAAECBAgQIECAAAECBFoXEGC0Tq5CAgQIECBAgAABAgQIECBAoFRgVoBR+mblCRAgQIAAAQIECBAgQIAAAQItCtztblVV3ZUK77qr/pcXAQJjJpA00s/vmHWa5hIgQIAAAQKtC7hnap1chQQWTWC5ERgegBbN1oEItCrgw7hVbpURIECAAAECYyrgnmlMO06zCVRVJcBwGRCYEAEfxhPSkU6DAAECBAgQWFIB90xLyuvgBJZUQICxpLwOTqA9AR/G7VmriQABAgQIEBhfAfdM49t3Wk5AgOEaIDAhAj6MJ6QjnQYBAgQIECCwpALumZaU18EJLKmAAGNJeR2cQHsCPozbs1YTAQIECBAgML4C7pnGt++0nIAAwzVAYEIEfBhPSEc6DQIECBAgQGBJBdwzLSmvgxNYUgEBxpLyOjiB9gR8GLdnrSYCBAgQIEBgfAXcM41v32k5AQGGa4DAhAj4MJ6QjnQaBAgQIECAwJIKuGdaUl4HJ7CkAgKMJeV1cALtCQzzYfyqV72qOvHEEwc2atmyZdWpp55a3XLLLdXRRx9dff7zn69uvPHG6qUvfWl17bXXDnzPvvvuW5fdc88963I77LDDcuV+/OMfVzvuuGN1+eWXL/d3TZ0bb7xxe1BqIkCAAAECBKZaYNA907vf/e7qpJNOqu+Feu9LmvuYQw45pL7PSbnrrruu+vCHPzzLcFC5M844o76fWmeddZbzznGav19jjTXqe6mzzjpruXJ5f3N/deaZZ9b3VINe22+/fXXKKadUd9xxx5z3Xblv62/3VF8ITn4sBQQYY9ltGk1geYFhAozed+VDMB/S+bBbc801Z/4qf94EGL0fuL/61a8GBhVz/XlzwHygv+xlL6ve9ra3zboh0IcECBAgQIAAgZUhMFeAcfDBB1dNENDcG40SYJx++unVBhtsUH3oQx9a7l4rQcRTnvKUOuBoAoz+L4NyT5Y2NaHKXPduvYZz3Xc157HzzjtXBx100NfNEp4AACAASURBVMpgVyeBRREQYCwKo4MQWPkC4xxgNCHIJpts4kN15V9KWkCAAAECBCZaYK4A49JLL61uuummqvchf5QAI8d78IMfXO2+++6zvsTJiNi8vvnNb84bYPSHEaMEGKkvoz7Spv4vrya6s53cxAkIMCauS53QtAqMc4AxrX3mvAkQIECAAIH2BeYKMDI1ZKuttpo16mHUACPTP2699daZL2hyvAMPPLDaeuutq5NPPnnBERjnnXfezLQPAUb714oauycgwOhen2gRgRUS6HKAMdcaGP3DNFfoxL2JAAECBAgQIFAgMF+AkTUiMkIioUPvmhIrsgZGRjscddRR9RSSTM/NtJSEEAklEpQ0U3bnWwOj915pvjUwjjnmmDokMYWk4EJQdCwFBBhj2W0aTWB5gS4HGNbAcMUSIECAAAECXRFYKMDoXS9il112qRfFXNEAIyHIkUceWR8ji4MmHEl4kVd/gNG/BsbXvva1epH0hBMZyTHsCIy5vjhqQo6u9IN2EFgRAQHGiqh5D4EOCggwOtgpmkSAAAECBAh0TmChACMNbhbQzEN/goZRAozzzz+/HnXxD//wD/X0keOOO67enW2hACPtaNbLyMiQYQOM/i+OcoxmvY1BO6J0roM0iMA8AgIMlweBCREQYExIRzoNAgQIECBAYEkFhgkwmvDgiiuuqG6//fYFR0FktEQTTmSkRe+CmdnatFn34sorr6zXtOjd9W2uXUiaNqy33nr19JAVDTCaxdJzPAt4Luml5eAtCAgwWkBWBYE2BAQYbSirgwABAgQIEBh3gWEDjGYqSUZLZLvTTOOYazvS3nUzstZF/44f+fsTTzxx5jjDBBj9ociKBhjpr2Y6SqavJEDxIjCuAgKMce057SbQJ7CyA4yzzjpruT7Jh332OJ9rLmbekKGZ++yzT7XnnntWtlF1WRMgQIAAAQJLLTBsgJF2NAtnNgFG/qwZ0dB777PvvvvOCgb6A4zewCLTOAYFGHPdSyU46W3LIJ9ly5ZVp556arX22mtXc6091pyLtTCW+gpz/KUUEGAspa5jE2hRoDTAaLFpqiJAgAABAgQIdEbAPVNnukJDCBQLCDCKybyBQDcFfBh3s1+0igABAgQIEOiWgHumbvWH1hAoERBglGgpS6DDAj6MO9w5mkaAAAECBAh0RsA9U2e6QkMIFAsIMIrJvIFANwV8GHezX7SKAAECBAgQ6JaAe6Zu9YfWECgREGCUaClLoMMCPow73DmaRoAAAQIECHRGwD1TZ7pCQwgUCwgwism8gUA3BXwYd7NftIoAAQIECBDoloB7pm71h9YQKBEQYJRoKUugwwI+jDvcOZpGgAABAgQIdEbAPVNnukJDCBQLCDCKybyBQDcFfBh3s1+0igABAgQIEOiWgHumbvWH1hAoERBglGgpS6DDAj6MO9w5mjaUwNe+9rXqpS99afW4xz2uOuWUU6o111xzqPcpNL9A43rf+963+vznP1+94x3vqE488cRq3333rT784Q9Xv/rVr6o999yzOuusswYe6F73ule1/vrrV1tvvXW13377Veussw5yAgQIjLWAe6ax7j6Nn3IBAcaUXwBOf3IEfBhPTl9O65kIMJam50sCjMc85jHVaqutNqshf/7zn6vrrruuDjqe/OQn1+HHRhtttDSNdVQCBAi0IOCeqQVkVRBYIgEBxhLBOiyBtgV8GLctrr7FEPjhD39YnXTSSdVFF11U5b9//etf14d98IMfXOVh+u///u+rvfbaq7rPfe6zGNVN5TH6A4xjjjmm+tCHPjRwBEZGaOywww7LOd122211+TPPPLPae++9q+OPP75addVVp9LTSRMgMP4C7pnGvw+dwfQKCDCmt++d+YQJ+DCesA6d8NP5wx/+UB177LFVHqbzDX/CinXXXbc6//zz6/Biww03rK644orqmmuuqR71qEfV5Z73vOdNuMrSnN4NN9xQ7bTTTtW9733v6rTTTqv/ef3rX1+bHnTQQbOmkMwVYKRlX/nKV6rdd9+9ylSUz3zmM3W/eBEgQGAcBdwzjWOvaTOB/y8gwHAlEJgQAR/GE9KRU3Aad911Vx1eHHHEEdUGG2xQ//czn/nM6rLLLpu1BkbWXvj0pz9dl/vNb35TfexjH6ue+9zn1qMHXv3qV1dvfOMbq3e/+93LiZ1zzjnVy172smqPPfao//4973lPdfDBB9frP/SPLsiIgh133HFmNEIO1oxY2Gqrreo1IvL6xS9+Ub35zW+uPvvZz1a77rpr/ec5do7bBAG9DRl0jB//+Md1XQ972MOWW+Pj6quvrl784hdX3/72t2e1M+HO6aefXteXv2tGqPTWNV/okHK//OUva4u73/3u1cknn1xdeOGFdV0f//jHa4/eNTDmO1bT/liceuqp1cYbb1w347vf/W49rSTuKfPIRz6yPu4hhxwya+RM8/7LL798uT6L4S677FLskwPl2vinf/qn6pOf/GR11VVXVausskr11Kc+tXrDG95Qr9txxx13zLvGR9OYph/TrxkVlOst5/aRj3yk/neu1fRfjts/IijXdMK3D37wg3U/5VyzhsuTnvSk6hWveEX1whe+sG5XXo1D/jve/WuKvOpVr6rOO++8WcbNtdbfP6k3Px/5Z/vtt591XV1//fXV+973vnptk9TZ/+ovP+hXz6DruCmX883PWa6r3uthCn6FOcUJEHDPNAGd6BSmVkCAMbVd78QnTcCH8aT16OSeT/NQlDPMA3XCi97goH8RzzxoH3DAAdVmm21WPyjlYSwP4A94wAPq0QQZsdG88kCXUQUZIfCJT3yi2nLLLWeChlECjAQIb3nLW+oH4mc/+9n1Q+liBRhpcx728wDdPNQ2Qct73/ve6rDDDqsS5jznOc+pRz80r2984xt16LNQgJHjZ/pHpnzkATsBQjzf//731yHEKAFGHo4TJP3kJz+pj/XoRz+6ShiTPn7CE55Q928Cjd4H99/97nd1X/7VX/3VzLnE9IlPfOLAAGM+n4Qp++yzT22QgGGTTTap/vjHP1Zf/vKX67AndgkE0n/NQ/ztt99enXvuufV109uOtCGjfNKvCWRyrC984Qv1uh9ZxDTesdtiiy3qUKM5r95A7oEPfGD1rGc9q+6vG2+8sbr00kvrdiRgyKiXxQ4wEpZkVMz3vve9WQFGRt0ktLr44ovr84htE6A057/pppsuuFjuXAFGQqNXvvKV1ac+9alq2bJlAozJ/XU9sWfmnmliu9aJTYGAAGMKOtkpToeAD+Pp6OdJOMt8K5yHuex8kW+6m7UU5lrE87//+7/rb7B/9rOf1aHEU57ylPrh6V/+5V/qb9632267GZam7P3vf//6oSoP/HN9e503DTMCIw/J2R0lD6Wpb/XVV6/rW6wA45JLLqnX+bj22mtnBRi33nprPdojD969QU9zsnkwz4P2QgHGQtfMsAFGM7Il03sSHP32t7+tH57T7re//e31OTS/h5oRNs9//vPrPo7ZfCNQeh/s+0eozOWT9xx55JHVoYceWocY6Y811lijPt1///d/r0Ome9zjHvV1kFCseS20WGzTrwk4es8rD+0JmjICKCNvjj766Pp8v/Wtb9WBWq653sAm9TVtT9iRESIps1gjMDINKz9HJ5xwQn1qvSMqcl3k+siuMQnB4jDs+fdeL3MFGBkZ9ZrXvKb+mRRgLPQT5u+7KOCeqYu9ok0EhhMQYAznpBSBzgv4MO58F2ngXwSaB+93vvOd9QPhQg9Wgx6w8zCY4yTIyAPnXz7M6of5BCN5qM1IjLxGDTAyhSMPaznOS17ykpn2LkaA0XyTffPNN9dhS9rfBBL5tj/1ZWRBRqGstdZas66htgKMBBVnn312vf1qvulvplo0U3kGLeqZ88r0gowQSei0+eabr1CAMZ9PE/D8/Oc/r0fcZB2V3tfhhx9eB1QZhZGpHwtdZ83fN/066Lyy0Oxuu+1Wj2bIdfHwhz+8+uhHP1qPZsl111xzzbEGhRWLFWD867/+ax3cJMDLlJPekUuZYpX+yZSnhH+DQolhtiseFGDkWs11mbAoo2kSYJlC4tf7uAm4Zxq3HtNeAv8nIMBwNRCYEAEfxhPSkVNwGnnIy7oU/WtYzPXNeLOGwwUXXFAPWc8w/+ZBMt/s59vgfGufofyZGtGUy/oDowYYb33rW+ug5M4776y/QX/oQx+6qAFGE47k2/w87PeOqLjpppuqnXfeuV7ktHlY7r08liLAWOjyyyiL9F1GoyQ8OuWUUwY+JOc4OaesG5IRAK973etWKMCYz6e5XpqpKlmkdJjXsCMwBj38Z3pKzjuBQTNFqbfOhCkZBZSgJyMzUlfW5cjUmma9i8UIMJpQ7/e//319zSdg6w0kmlFO863PsqIBRgKehCPHHXdc3f9ZH0SAMcyVp0yXBNwzdak3tIVAmYAAo8xLaQKdFfBh3Nmu0bA+gWb0RLOmRbOuw1wPls0Q/Xve854zu180YUUecJtpJE2okQez3qkpzTfq83VE1ohoFuxs2tFM6chaAQkWHvvYx846xKgjMDK6IN9kZ1pBvsXPaJTeACMPy1kwMg+L+aY9a3BkwcdmtMlSBBgZxbDaaqvNOs+M/Nhoo43qLW2znkJGHzQP0NmZJAur3u9+91uO95ZbbqnOOOOMmQVSS6eQLOQzaPrPMD9swwQY6YcEFM94xjOWO+Qg9wQaRx11VL3mRPPKIp7ZqeVHP/pR3W+LGWDkWs30lg984AN1qJYpTr2BRHOOWWAzI2f+7u/+bqZfFzr/3hPuH4HRrLmR9VhyPWaajgBjmKtOma4JuGfqWo9oD4HhBQQYw1spSaDTAj6MO909Gtcj0AxBzxSJDO/PQ3qu30EPVpnnn/UG8m3va1/72upd73rXzJoZ/buNZHTGgQceWJcdNNUjoxke8pCHzOqL/ofs/GXTjgQsWWA0D4r5lj8LN/YuojlqgJHjJZxIAJMFJAc9GGchyJx3Hn7nerW1BkZv/b3Teha6uJtwqDTAWMhnKQOMBGBzjSro76dM5Xj5y19e78bxghe8oO7Lxz/+8fUioT/96U9npq8sVoCRazFrj2Rh0QQZCfj6A4wEfBkdkZ+vQTuQpM9KdyFJWJKf1a9+9av1SKgEJ5k2I8BY6CfA33dRwD1TF3tFmwgMJyDAGM5JKQKdF/Bh3Pku0sAegWaRxTygZwHEDIPPVJE8EOWb5DyYff/736+nK3zxi1+stt1223pURe+Wk80aCP/7v/9brxGRoOHKK69cbrrFqGtgpC0JUbImQm+AMkqAkakVebDP2hDNMecaUZEpJHmYzzfe2b6z2eVi2F1IFrrwhl3Es/c4zVSKjDiYa6RCf70lAcYwPnmQzoN8dtjI4pmLPYVkUDCU9UByHTTnndE5zVSabLuadT96X4u9BsbnPve5OjDI9JYEFE972tMGBn9NGzL6I+1NKNfsErOiu5DstNNO9Uig/fffv148tLluBBgL/YT5+y4KuGfqYq9oE4HhBAQYwzkpRaDzAj6MO99FGtgnkHUCMm0i0xCy1eSgV4bh5wGseXjvL5NvmLMLQ0KABBwZMdG7qGfKjxpgNA9q+aa7GS3Re9z51hnYaqutZqamNA+zD3rQg+otYL/zne/U32RnfYS85gow8rCaURjZyaJ3l4ulmEJSMpqjcc3WrAmgFnoNG2AM65M1QrKgZh7IBy3imWAlu5TEqdnCNG1caApFc14ZbdB/LTXTlBKWZCeWv/7rv553FEIzSmjdddddlCkkud4zBSsjjPLfc41cynk2W8z+27/924Ijnebqu8Yq4Ud+RrPmRsLCbBcrwFjoivf3XRZwz9Tl3tE2AvMLCDBcIQQmRMCH8YR05BSexnXXXVdddNFF9daXeeDL0PtmvYV8w907baOfJ+FHvoV/xCMeUeWBNiMVttxyy1nFRg0wcrCstZFvnrOWQLMt6IqOwLjmmmuqP/3pT7N2SpkrwPj6179ePyBndEq+4c96E81rZQcYV199dT16JjtRZM2IjCZpXrfddls9wiTThDIyJlMchg0whvXJNIkjjjii/icBShYNbba4veGGG+r1GRI4NLugNG0bNsDI7i9ZgDSjf/Lq3Ua1Ca2akSgZDZH6M1KnWaMkPhmxkOs6W/8uxhSSrJeSdTVyTuutt17drkHnk3a96U1vqndHSR811+wwAU7vD09z7IQh2Yo100iaXU0EGFP4y3qCTtk90wR1plOZOgEBxtR1uROeVAEfxpPas9NzXgs9WA6SyINVHo6zDkEe7rNuQX/gsRgBRrOdZ77NPv744+uHuOa4W2+9db3Vae+rGaafURNZ8DAjKDL9INt55qF+m222mfkme65AIg+IeQjPQph5MM4DcvNwPFfgsSJXy4pMIWnqSbCT3WTuuOOO6ulPf3r9cJ0+SbCUwOJFL3pRPUImfTJsgDGsT9rQjDJIOJCpR1l0Mw/vCcSy/kTvGiulAUYWbc0Upy222KIO1TJlJdMles8px0zdCVAyQqGZppGpGxdeeGE93ed//ud/qh/84Acza2o0Dj/5yU/q6yCL0/a+MjUoIU6Ck0zbyK47zbWW3V+ybsoee+wx85ZBPzdNmxJ4JOzINJthz39QgJEFbbMDTaZTJcjIS4CxIj9t3tMVAfdMXekJ7SBQLiDAKDfr7DualfpzozTskN7mZHKzc/jhh9ffXuYGzGv8BHwYj1+fafFsgRUJMHKE+UZC9P79oOkRgxaC7N95oWlls1hjHtTzjXt+XyZYWOjVfPuecgkwrr/++pkQpPe9vSMqshjkscceW48uyCiUZtj+XOV32GGHhZox59+PEmDkoJkKkz645JJL6pAi036yhW2CpQQ9zaiIYQOMYXx6zzfhUqb2pE/yOZj6n/rUp1b77bdf9fznP39W6JP2LnSdNddTpvdkwdmMfMnnas4po2GyzkVzTjleRoJ86UtfqqcxJXzJK4FBHvhz/hmt8ba3va3uw4wWahyasvN1XDPSo2nToIU3+88no19Sd/qlP+wY5vx729McO3/Wv6ipAGOFf+S8sQMC7pk60AmaQGAFBQQYKwjXxbflBic3O5mTm2+iBn0TOajdzTDXrMZvL/cu9uxwbfJhPJyTUpMnkHUOPv3pT9frSeQhs0uvhBLf/OY3Z6YPdKlt2jJYYL4RO22ZNcFBFgg96KCD2qpWPQSmRsA909R0tROdQAEBxoR0ajOMOvOqs0p/hjln2Gj/XPD+082Q2AxtvuKKK6ply5YJMMb4evBhPMadp+krLJBdR/Kt+EYbbVSPalh11VVX+FhL8UYBxlKoLu0xBRhL6+voBLog4J6pC72gDQRWTECAsWJunXtXs9J5buQ322yzeohr5sj2r6DeNDxDbjOX9bjjjquH22ZF9cwXNgKjc107dIN8GA9NpeCYC9x5553Vq1/96iq7mGThzrXWWmtmS8munZoAo2s9snB7BBgLGylBYNwF3DONew9q/zQLCDAmoPcz/zZDTDO/NvOAM9961113rXKTn2HV66+//nJn2cz7TtiRECMryJ933nkCjDG+HnwYj3HnaXqxQBaOzM4K2Z7yqKOOqhc69CKwGAJdCDAW4zwcgwCBuQXcM7k6CIyvgABjfPtupuX9+9JntfTMCT/00EPnXMzz3HPPrb7//e9X+XYwi5Hl3wKM8b4YfBiPd/9pPQECBAgQINCOgHumdpzVQmApBAQYS6Ha8jEzeiIBRFY5f+tb31rXni3sstr5hhtuONRingKMljttCarzYbwEqA5JgAABAgQITJyAe6aJ61InNEUCQwcYzbZfWSgtayf0vjLc8tJLL63nIGc9hbx6t2Vryu67776z3jvXVmL9i0kOOlZv/YO2xpuWPsxaFlnv4rLLLqsX7dx8883rU2/+/IILLqinlWy33Xbzkggwxv+K8WE8/n3oDAgQIECAAIGlF3DPtPTGaiCwVALFAUb2Le8PDPoDjGb7r6222mpWYNG/mFkCjDx8Z+TAxhtvPHOOWZ/h4IMPnlmPoQkwsqf8KHvdLxXiyjxuM9IiWwf2BkhpU/Z/z0J3e++994Kr8wswVmYvLk7dPowXx9FRCBAgQIAAgckWcM802f3r7CZboCjASNiQ9RX+8z//c9ae9r0BRriyE8Ymm2wycO/yPCjnlVEccwUY+ftBx1wowBg0EmSyu6+qDjvssDoAmu+1wQYbVJ/61KeqhBxzvQQY43+l+DAe/z50BgQIECBAgMDSC7hnWnpjNRBYKoHiACO7XSR8SJDRTCXpDQ6uuuqq6sADD6x3tugdVdGcQEZnZHHJTGvIa9AIjPx5b7k11lijDkUWCjCWCqmrx832gbvttlt1ww03VNtss011z3vec7mmfvvb364uueSSWetjDDofAUZXe3n4dvkwHt5KSQIECBAgQGB6BdwzTW/fO/PxFygOMJpv+xMmHHPMMfWUjt4A4/zzz6+OPvroWSM0epl6R12svfbacwYYveUe85jH1AHGWWedtZx4tgzNlJZ11lln/Huj8Aw++clP1ot37rLLLnNOETnnnHNq4xhmS9WHPexhA2sRYBTid7C4D+MOdoomESBAgAABAp0TcM/UuS7RIAJDC6xQgJGRFQktzjjjjDo8+MxnPjOziOdSBhhGYPxfv/7xj3+s9t9//9o+I2Fe8pKXDOz0X/ziF/XIlYsvvnjecgKMoX9mOlvQh3Fnu0bDCBCYIoFmHbD73ve+9T3SO97xjiq7hfUvZD5FJE6VQOcE3DN1rks0iMDQAiscYDQLa2YqyXrrrTcTYJhCMrT9SAW/9a1vVS9+8YurBz7wgfOOrEglCZuyKOquu+5a/eM//mO12mqrLVe3AGOk7ujEm30Yd6IbNIIAgSkXEGBM+QXg9MdCwD3TWHSTRhIYKLDCAUaO1nxIP+IRj6jufe9717tg5LWyFvGcpj5uQok3vvGNdUAx36sJO1JmrsU8BRjjf/X4MB7/PnQGBAiMv0B/gJHpttkVzAiM8e9bZzA5Au6ZJqcvncn0CYwUYISreZDefvvtZ7bxtI3q9F1IznjlC/gwXvl9oAUECBDIwto77bRT/cXOaaedVv/z+te/vl43LAuhexEgsPIF3DOt/D7QAgIrKjBygNFMJUkDMgJjzTXXrNvS/Hnvwpv93z5koc4dd9yxuvzyy2e1v39hzkHH6n1Dc9xp3EZ1RTve+yZPwIfx5PWpMxpfge985zt1wP+Nb3yjuuaaa6p73ete9WLKWa8oCyuvvvrqMyeXEXBZI6H/9fjHP75+EH7d615Xl5+r3KDPw/zZb37zm3rHryz4nOmdq6yySr2d9ite8YrqhS98Yf3/zSttPemkk6qPfexj1Xe/+93qIx/5SP3vbMOdz+k3vOEN1X3uc5+Z8nN9UZECWQsr53j3u9+9OvXUU2d2JEt7smZT6vjBD35QL76dqY2HHHLIrGPnGLfffnt17LHHVueee271wx/+sPr1r39dPfKRj6y23Xbb2mPdddddzi/rTWRh8d7XmWeeWbe/Nzxo7j2yqHXvfUved/XVV9fTM7ODV+/x/vznP1enn3563f78XdrT/2rK//KXv6z22GOP+vxPPvnk6sILL6yP+fGPf3y59o3vFa7lBMZbwD3TePef1k+3wNABxnQzOXsC3RfwYdz9PtLC6RD47Gc/W732ta+tT/Y5z3lOlcUcs6DyV77ylSoPz/m7d73rXdWqq65al0kw8bnPfa5+OG9Cgt7yWcMou3tlDaPvfe979Xt+//vfV1/84hfr/+7dRnvDDTesA4obb7yxOuCAA6qzzz67etzjHlc94xnPqLL480UXXVRdd9119Xbneai/xz3uUR8jAUZClE022aT6whe+UD35yU+u1l9//TqAyZcMW2yxRR1qJETIa64AIyHFK1/5ynq64rJly2YCjD/84Q/1WkzZYj1fUmy00UbVlVdeWa+ftfPOO1cf/ehHZ74ASeCz1157VQmBsmj4ox/96LrtaUumRG622WZ1GJDpq41f2j5qgHHXXXfVYUpc8uo93nvf+97qsMMOq4Oopk+bqzntuuyyy2bK5zj5YiX9+8EPfrD2S1+8//3vH7i9/HT8VDhLAt0ScM/Urf7QGgIlAgKMEi1lCXRYwIdxhztH06ZG4Kabbqp222236qc//Wn9UL7pppvOnPt//dd/1d/M/+53v6t3kHrUox418wB+3nnnzRqtkL9oRgPkgbi3fP6uGUXQPGj3biWeh/03velN9QNzHpwTfjQjPppgI6Mk8qCe8KQJMBIwZGHut7/97XWAkN8pCSTyUJ81HJogJX8+V4CR7bpf85rXVD/72c9mBRgJb3bfffd6FErChyxAndGVCVsyyiKBx/Oe97wq55ppFhkNksAgIz/+cqNSJQTJVIwTTjihPkaOt5gBxiWXXFKf97XXXjsrwLj11lvrkSIxz4iKZz7zmbOu52ZkzKAAZWoufCdKYMwE3DONWYdpLoEeAQGGy4HAhAj4MJ6QjnQaYy3wpS99qQ4PMpIhD/3Nw3dOqpkOmakZvVMr5lpEea7yCwUY//Ef/1FPWVhrrbWqT3ziE/VOYb2vJkzIyIZML7n//e8/s57V3nvvXR1//PEzo0PyvkzhSCiTKSeZRvHwhz98YIBx880311Nk1lhjjTqkSRDQnGdGMGTqSGya4KE3fMjfZ2pIwoKMXsgIlLw3dfW+mnW3eqeEzBcgDDuFpBk5knNotj9tAomMoMh5ZTpNgpO49r4EGGP9I6vxUyrgnmlKO95pT4SAAGMiutFJEKjqB6V8e+lFgEA3BBJAZMRDAotMh2imQCQwGCbAyINz1pLI1tdNcNCc2XwjMP75n/+5DjASOmRqRW+Ikvc3azRkHYoEGJnS0QQDmf6S9TF6XxnRkWkhGSWSQGTLLbccGGDkGAltMk0ka0v0BzW9x8zvqqwNsf/++1e//e1v6+NuvvnmsZJ8LAAACp5JREFUs+rNiIsEGpk2k9EomaYRw5z7YgcY8c3IkYxWST29U1IyqibTXJp1MPpDFQFGN37etIJAiYB7phItZQl0S0CA0a3+0BoCKyzgw3iF6byRwKIK5IE70y4y0qFZ7DFrJ2T9iDvvvLOuqz/A6F8DI+/LehU///nPqyOOOKJ+uO59zRdg5OE7D9XvfOc763b0vwYFEs0aGAkSsl5G/6v/Ib1/CkkWtszIiqwP8Za3vKWeGjJXgNGEJakja37k/xPUNEHLHXfcUU9jSVsSYDSv+GVnj9S1mAFGRl9khEWCpUz7iVlvgBGvTGVJOLPPPvvU55cpO017BRiL+uPjYARaEXDP1AqzSggsiYAAY0lYHZRA+wI+jNs3VyOBfoHmQT4BQ3bE2HrrresFMR/60IdWf/rTn6o999xzuQf7+XYXyZoUWXAzaz80C26mzsUIMC6++OI6JEhg0exC0hus9J7bfAHGBz7wgfoB/6tf/Wq9lkXOddB5NsfLCJGswfGjH/2oHoWRMCC7pWQkSO8ioFk4NDuIZCHPjHq43/3uNzNSZDEDjCxOmnAibXj2s589s9tL75oWGUmTxVfzZ3O9rIHh9wGB8RFwzzQ+faWlBPoFBBiuCQITIuDDeEI60mmMtUAWnnzb295Wf0t/5JFHjrQGRtaeyMKZedjP9p0ZJdC8RplCkgU2c6zrr79+uSkkgx7CM8Uja2M0gUf/FJJs9ZqRCZkOkqBlvrU7ejs300iyKGZGlyTwyI4dF1xwwcxinwlTHvSgB826HhZ7DYw3v/nN9Zobmb7S7Awz14iKTCFJ2JG+zciRZz3rWfWuJP27kIz1BazxBKZEwD3TlHS005xIAQHGRHark5pGAR/G09jrzrlrAvNNJ8gWoFmbIiMxhlkDI+eWtRle9KIX1Q/ZCTGGCTCGXcQzi3uedtpp9c4jTTCQkRT57951M5pFPDN9oynfTCHJ6IhMd8m2rr27i/SOwHjsYx9bL9CZwCSBRe8aEs1xstVr1s1IWJNRF/3nm/PO6IxMNYnJYozASDjygAc8oF6fJCNHsqhpXnP1YbM9bqay5DyaLWVNIenaT6H2EFhYwD3TwkZKEOiqgACjqz2jXQQKBXwYF4IpTmAJBJoRGPvtt1+VnTWaaR+33XZb/VCeXTGWLVs2VICREQpZ/yL/HHroofW/hwkwht1GNcfLiIm8mgAjO22k3dtuu239573bqPaGBk3wkN1Cco6ZRtIs/tk/AuPpT396vTXqscceW2+NmlEPeU/OL3+WdmT9jEzjyJSS/Pff/M3f1IHI3/7t39btyOiH97znPdVRRx1VByaLEWBcc801dZgU27SveQ0KJL7+9a/Xo0SyAGp2U3nuc587b/kluLQckgCBRRRwz7SImA5FoGUBAUbL4KojsFQCPoyXStZxCQwv0DzoZoePbKX6xCc+sZ5S8eUvf7laf/316wfz7PzRO1UjD8z9i3jmgf3KK6+sF6xce+2169EJT3va04YKMFIoazYccMAB1dlnn11ldEPWuUiwkYVBr7vuunrKR0KLbHnaG2BktETem/UnMjIj61pkMc6MAjnhhBPqLUbzagKMbJW611571aNDmrBm0BSSjApJAJDRDo1LRnbkODm/LJ656aab1lZZAPSMM86ot3/NNI1VV121bkfCg+22264+p/y7GZHSBA7ZKeQhD3nIrM665ZZb6mNlLZKtttqqSrCUhVEzyiO7vGyzzTYzI0fmCjB625QpPdmppHeEihEYw/98KEmgKwLumbrSE9pBoFxAgFFu5h0EOingw7iT3aJRUyiQh/TDDz+8Dgvy8PukJz2p2nXXXauXv/zl1TnnnFPtscces0ZUzLWIZwKEBAl5aH7CE54wS3K+NTCaghk9kYUpE5hcddVV1SqrrFK3JQFBRkvk/5tXMwIjUyluvvnmepRBQpiUT/CQqRurr776TPkmwMgf9C/8OdcaGJlC8r73va8666yz6kVI5zq/22+/vQ4JMl0l5bLIZwKLjGBJmLHLLrvUa2PkvLJzyHyLoPaibb/99nUQlF1OEmCkPccff/xy28b2BhIveMELZkaJJGBppsn0HleAMYU/5E557AXcM419FzqBKRYQYExx5zv1yRLwYTxZ/elsCLQp0AQYk7iTRhOoxDMBxpprrtkmrboIEOiggHumDnaKJhEYUkCAMSSUYgS6LuDDuOs9pH0EuisgwOhu32gZAQKLL+CeafFNHZFAWwICjLak1UNgiQV8GC8xsMMTmGABAcYEd65TI0BgOQH3TC4KAuMrIMAY377TcgKzBHwYuyAIEFhRgUkOMFbUxPsIEJhcAfdMk9u3zmzyBQQYk9/HznBKBHwYT0lHO00CBAgQIEBgJAH3TCPxeTOBlSogwFip/ConsHgCPowXz9KRCBAgQIAAgckVcM80uX3rzCZfQIAx+X3sDKdEwIfxlHS00yRAgAABAgRGEnDPNBKfNxNYqQICjJXKr3ICiyfgw3jxLB2JAAECBAgQmFwB90yT27fObPIFBBiT38fOcEoEfBhPSUc7TQIECBAgQGAkAfdMI/F5M4GVKiDAWKn8KieweAI+jBfP0pEIECBAgACByRVwzzS5fTsOZ/aXB/BxaGqX23i3u1VVdVdaeNdd9b+8CBAYMwEfxmPWYZpLgAABAgQIrBQB90wrhV2lfxFw/Y12KRiBMZqfdxPojIBfhp3pCg0hQIAAAQIEOizgnqnDnTMFTXP9jdbJAozR/LybQGcE/DLsTFdoCAECBAgQINBhAfdMHe6cKWia62+0ThZgjObn3QQ6I+CXYWe6QkMIECBAgACBDgu4Z+pw50xB01x/o3WyAGM0P+8m0BkBvww70xUaQoAAAQIECHRYwD1ThztnCprm+hutkwUYo/l5N4HOCPhl2Jmu0BACBAgQIECgwwLumTrcOVPQNNffaJ0swBjNz7sJdEbAL8POdIWGECBAgAABAh0WcM/U4c6Zgqa5/kbrZAHGaH7eTaAzAn4ZdqYrNIQAAQIECBDosIB7pg53zhQ0zfU3WicLMEbz824CnRHwy7AzXaEhBAgQIECAQIcF3DN1uHOmoGmuv9E6WYAxmp93E+iMgF+GnekKDSFAgAABAgQ6LOCeqcOdMwVNc/2N1skCjNH8vJtAZwT8MuxMV2gIAQIECBAg0GEB90wd7pwpaJrrb7ROFmCM5ufdBDoj4JdhZ7pCQwgQIECAAIEOC7hn6nDnTEHTXH+jdbIAYzQ/7ybQGQG/DDvTFRpCgAABAgQIdFjAPVOHO2cKmub6G62TBRij+Xk3gc4I+GXYma7QEAIECBAgQKDDAu6ZOtw5U9A0199onSzAGM3Puwl0RsAvw850hYYQIECAAAECHRZwz9ThzpmCprn+RutkAcZoft5NoDMCfhl2pis0hAABAgQIEOiwgHumDnfOFDTN9TdaJwswRvPzbgKdEfDLsDNdoSEECBAgQIBAhwXcM3W4c6agaa6/0TpZgDGan3cT6IyAX4ad6QoNIUCAAAECBDos4J6pw50zBU1z/Y3WyQKM0fy8m0BnBPwy7ExXaAgBAgQIECDQYQH3TB3unClomutvtE5eLsAY7XDeTYAAAQIECBAgQIAAAQIECBBYMoG7/T8VLsVTfMlX9gAAAABJRU5ErkJggg==;" vertex="1" parent="1">
          <mxGeometry x="1390" y="665" width="926.17" height="830" as="geometry" />
        </mxCell>
        <mxCell id="FY81dZ7kDu10n6bw8b0m-8" value="" style="endArrow=classic;html=1;rounded=0;entryX=0;entryY=0.75;entryDx=0;entryDy=0;" parent="1" edge="1">
          <mxGeometry width="50" height="50" relative="1" as="geometry">
            <mxPoint x="1410" y="955" as="sourcePoint" />
            <mxPoint x="1540" y="955" as="targetPoint" />
          </mxGeometry>
        </mxCell>
        <mxCell id="FY81dZ7kDu10n6bw8b0m-9" value="" style="endArrow=classic;html=1;rounded=0;entryX=0;entryY=0.25;entryDx=0;entryDy=0;" parent="1" edge="1">
          <mxGeometry width="50" height="50" relative="1" as="geometry">
            <mxPoint x="1410" y="925" as="sourcePoint" />
            <mxPoint x="1540" y="925" as="targetPoint" />
          </mxGeometry>
        </mxCell>
        <mxCell id="FY81dZ7kDu10n6bw8b0m-11" value="&lt;font style=&quot;font-size: 10px;&quot;&gt;Данные о клиенте&lt;/font&gt;" style="text;html=1;strokeColor=none;fillColor=none;align=center;verticalAlign=middle;whiteSpace=wrap;rounded=0;rotation=0;" parent="1" vertex="1">
          <mxGeometry x="1420" y="900" width="110" height="30" as="geometry" />
        </mxCell>
        <mxCell id="FY81dZ7kDu10n6bw8b0m-12" value="&lt;font style=&quot;font-size: 10px;&quot;&gt;Данные о персонале&lt;/font&gt;" style="text;html=1;strokeColor=none;fillColor=none;align=center;verticalAlign=middle;whiteSpace=wrap;rounded=0;rotation=0;" parent="1" vertex="1">
          <mxGeometry x="1420" y="930" width="110" height="30" as="geometry" />
        </mxCell>
        <mxCell id="hefKUs__YGLpEvHOK8ig-1" value="&lt;span style=&quot;font-size: 14px;&quot;&gt;&lt;br&gt;Валидация&lt;/span&gt;" style="html=1;align=center;verticalAlign=top;rounded=1;absoluteArcSize=1;arcSize=10;dashed=0;whiteSpace=wrap;" parent="1" vertex="1">
          <mxGeometry x="1540" y="910" width="180" height="60" as="geometry" />
        </mxCell>
        <mxCell id="hefKUs__YGLpEvHOK8ig-2" value="&lt;font style=&quot;font-size: 14px;&quot;&gt;Проверка на наличие пользователя в системе&lt;/font&gt;" style="html=1;align=center;verticalAlign=top;rounded=1;absoluteArcSize=1;arcSize=10;dashed=0;whiteSpace=wrap;" parent="1" vertex="1">
          <mxGeometry x="1540" y="1050" width="180" height="60" as="geometry" />
        </mxCell>
        <mxCell id="hefKUs__YGLpEvHOK8ig-3" value="" style="endArrow=classic;html=1;rounded=0;exitX=1;exitY=0.5;exitDx=0;exitDy=0;entryX=0.5;entryY=0;entryDx=0;entryDy=0;" parent="1" source="hefKUs__YGLpEvHOK8ig-1" target="hefKUs__YGLpEvHOK8ig-2" edge="1">
          <mxGeometry width="50" height="50" relative="1" as="geometry">
            <mxPoint x="1680" y="1090" as="sourcePoint" />
            <mxPoint x="1730" y="1040" as="targetPoint" />
            <Array as="points">
              <mxPoint x="1750" y="940" />
              <mxPoint x="1750" y="1030" />
              <mxPoint x="1690" y="1030" />
              <mxPoint x="1630" y="1030" />
            </Array>
          </mxGeometry>
        </mxCell>
        <mxCell id="hefKUs__YGLpEvHOK8ig-4" value="&lt;font style=&quot;font-size: 10px;&quot;&gt;Данные о пользователе&lt;/font&gt;" style="text;html=1;strokeColor=none;fillColor=none;align=center;verticalAlign=middle;whiteSpace=wrap;rounded=0;rotation=0;" parent="1" vertex="1">
          <mxGeometry x="1620" y="1000" width="140" height="30" as="geometry" />
        </mxCell>
        <mxCell id="hefKUs__YGLpEvHOK8ig-5" value="&lt;font style=&quot;font-size: 14px;&quot;&gt;&lt;br&gt;Регистрация пользователя&lt;/font&gt;" style="html=1;align=center;verticalAlign=top;rounded=1;absoluteArcSize=1;arcSize=10;dashed=0;whiteSpace=wrap;" parent="1" vertex="1">
          <mxGeometry x="1540" y="1160" width="180" height="60" as="geometry" />
        </mxCell>
        <mxCell id="V4f_2r2WSFjoRzTgrVU7-1" value="" style="endArrow=classic;html=1;rounded=0;exitX=1;exitY=0.75;exitDx=0;exitDy=0;entryX=0.5;entryY=0;entryDx=0;entryDy=0;" edge="1" parent="1" source="hefKUs__YGLpEvHOK8ig-2" target="hefKUs__YGLpEvHOK8ig-5">
          <mxGeometry width="50" height="50" relative="1" as="geometry">
            <mxPoint x="1950" y="1080" as="sourcePoint" />
            <mxPoint x="2000" y="1030" as="targetPoint" />
            <Array as="points">
              <mxPoint x="1780" y="1095" />
              <mxPoint x="1780" y="1150" />
              <mxPoint x="1630" y="1150" />
            </Array>
          </mxGeometry>
        </mxCell>
        <mxCell id="V4f_2r2WSFjoRzTgrVU7-2" value="&lt;span style=&quot;font-size: 10px;&quot;&gt;Отсутствие&amp;nbsp;в системе&lt;/span&gt;" style="text;html=1;strokeColor=none;fillColor=none;align=center;verticalAlign=middle;whiteSpace=wrap;rounded=0;rotation=0;" vertex="1" parent="1">
          <mxGeometry x="1640" y="1120" width="140" height="30" as="geometry" />
        </mxCell>
        <mxCell id="V4f_2r2WSFjoRzTgrVU7-3" value="" style="endArrow=classic;html=1;rounded=0;entryX=0.25;entryY=1;entryDx=0;entryDy=0;" edge="1" parent="1" target="V4f_2r2WSFjoRzTgrVU7-15">
          <mxGeometry width="50" height="50" relative="1" as="geometry">
            <mxPoint x="1470" y="1320" as="sourcePoint" />
            <mxPoint x="1870" y="990" as="targetPoint" />
            <Array as="points">
              <mxPoint x="1470" y="990" />
              <mxPoint x="1985" y="990" />
            </Array>
          </mxGeometry>
        </mxCell>
        <mxCell id="V4f_2r2WSFjoRzTgrVU7-4" value="&lt;font style=&quot;font-size: 10px;&quot;&gt;Система&lt;/font&gt;" style="text;html=1;strokeColor=none;fillColor=none;align=center;verticalAlign=middle;whiteSpace=wrap;rounded=0;rotation=-90;" vertex="1" parent="1">
          <mxGeometry x="1430" y="1190" width="60" height="30" as="geometry" />
        </mxCell>
        <mxCell id="V4f_2r2WSFjoRzTgrVU7-5" value="" style="endArrow=classic;html=1;rounded=0;" edge="1" parent="1">
          <mxGeometry width="50" height="50" relative="1" as="geometry">
            <mxPoint x="1470" y="1250" as="sourcePoint" />
            <mxPoint x="1630" y="1220" as="targetPoint" />
            <Array as="points">
              <mxPoint x="1630" y="1250" />
            </Array>
          </mxGeometry>
        </mxCell>
        <mxCell id="V4f_2r2WSFjoRzTgrVU7-6" value="" style="endArrow=classic;html=1;rounded=0;" edge="1" parent="1">
          <mxGeometry width="50" height="50" relative="1" as="geometry">
            <mxPoint x="1470" y="1130" as="sourcePoint" />
            <mxPoint x="1630" y="1110" as="targetPoint" />
            <Array as="points">
              <mxPoint x="1550" y="1130" />
              <mxPoint x="1630" y="1130" />
            </Array>
          </mxGeometry>
        </mxCell>
        <mxCell id="V4f_2r2WSFjoRzTgrVU7-7" value="" style="endArrow=classic;html=1;rounded=0;entryX=0.5;entryY=1;entryDx=0;entryDy=0;" edge="1" parent="1" target="hefKUs__YGLpEvHOK8ig-1">
          <mxGeometry width="50" height="50" relative="1" as="geometry">
            <mxPoint x="1630" y="990" as="sourcePoint" />
            <mxPoint x="1720" y="950" as="targetPoint" />
          </mxGeometry>
        </mxCell>
        <mxCell id="V4f_2r2WSFjoRzTgrVU7-8" value="&lt;font style=&quot;font-size: 14px;&quot;&gt;Выбор системным администратором роли пользователя&lt;/font&gt;" style="html=1;align=center;verticalAlign=top;rounded=1;absoluteArcSize=1;arcSize=10;dashed=0;whiteSpace=wrap;" vertex="1" parent="1">
          <mxGeometry x="1850" y="1160" width="180" height="80" as="geometry" />
        </mxCell>
        <mxCell id="V4f_2r2WSFjoRzTgrVU7-9" value="" style="endArrow=classic;html=1;rounded=0;exitX=1;exitY=0.5;exitDx=0;exitDy=0;entryX=0.932;entryY=0.98;entryDx=0;entryDy=0;entryPerimeter=0;" edge="1" parent="1" source="hefKUs__YGLpEvHOK8ig-5" target="V4f_2r2WSFjoRzTgrVU7-10">
          <mxGeometry width="50" height="50" relative="1" as="geometry">
            <mxPoint x="1740" y="1200" as="sourcePoint" />
            <mxPoint x="1790" y="1150" as="targetPoint" />
          </mxGeometry>
        </mxCell>
        <mxCell id="V4f_2r2WSFjoRzTgrVU7-10" value="&lt;span style=&quot;font-size: 10px;&quot;&gt;Даннные пользователя&lt;/span&gt;" style="text;html=1;strokeColor=none;fillColor=none;align=center;verticalAlign=middle;whiteSpace=wrap;rounded=0;rotation=0;" vertex="1" parent="1">
          <mxGeometry x="1720" y="1160" width="140" height="30" as="geometry" />
        </mxCell>
        <mxCell id="V4f_2r2WSFjoRzTgrVU7-11" value="" style="endArrow=classic;html=1;rounded=0;entryX=0.5;entryY=1;entryDx=0;entryDy=0;" edge="1" parent="1" target="V4f_2r2WSFjoRzTgrVU7-8">
          <mxGeometry width="50" height="50" relative="1" as="geometry">
            <mxPoint x="1940" y="1340" as="sourcePoint" />
            <mxPoint x="1910" y="1270" as="targetPoint" />
          </mxGeometry>
        </mxCell>
        <mxCell id="V4f_2r2WSFjoRzTgrVU7-12" value="&lt;font style=&quot;font-size: 10px;&quot;&gt;Системный администратор&lt;/font&gt;" style="text;html=1;strokeColor=none;fillColor=none;align=center;verticalAlign=middle;whiteSpace=wrap;rounded=0;rotation=-90;" vertex="1" parent="1">
          <mxGeometry x="1910" y="1280" width="60" height="30" as="geometry" />
        </mxCell>
        <mxCell id="V4f_2r2WSFjoRzTgrVU7-13" value="" style="endArrow=classic;html=1;rounded=0;entryX=0.25;entryY=0;entryDx=0;entryDy=0;" edge="1" parent="1" target="V4f_2r2WSFjoRzTgrVU7-8">
          <mxGeometry width="50" height="50" relative="1" as="geometry">
            <mxPoint x="1895" y="810" as="sourcePoint" />
            <mxPoint x="1960" y="1055" as="targetPoint" />
          </mxGeometry>
        </mxCell>
        <mxCell id="V4f_2r2WSFjoRzTgrVU7-14" value="&lt;font style=&quot;font-size: 10px;&quot;&gt;Пользовательское соглашение&lt;/font&gt;" style="text;html=1;strokeColor=none;fillColor=none;align=center;verticalAlign=middle;whiteSpace=wrap;rounded=0;rotation=-90;" vertex="1" parent="1">
          <mxGeometry x="1860" y="840" width="60" height="30" as="geometry" />
        </mxCell>
        <mxCell id="V4f_2r2WSFjoRzTgrVU7-15" value="&lt;br&gt;&lt;br&gt;Авторизация" style="html=1;align=center;verticalAlign=top;rounded=1;absoluteArcSize=1;arcSize=10;dashed=0;whiteSpace=wrap;" vertex="1" parent="1">
          <mxGeometry x="1940" y="890" width="180" height="80" as="geometry" />
        </mxCell>
        <mxCell id="V4f_2r2WSFjoRzTgrVU7-16" value="" style="endArrow=classic;html=1;rounded=0;exitX=1;exitY=0.25;exitDx=0;exitDy=0;entryX=-0.003;entryY=0.626;entryDx=0;entryDy=0;entryPerimeter=0;" edge="1" parent="1" source="hefKUs__YGLpEvHOK8ig-2" target="V4f_2r2WSFjoRzTgrVU7-15">
          <mxGeometry width="50" height="50" relative="1" as="geometry">
            <mxPoint x="1700" y="1030" as="sourcePoint" />
            <mxPoint x="1750" y="980" as="targetPoint" />
            <Array as="points">
              <mxPoint x="1790" y="1065" />
              <mxPoint x="1790" y="940" />
            </Array>
          </mxGeometry>
        </mxCell>
        <mxCell id="V4f_2r2WSFjoRzTgrVU7-17" value="&lt;span style=&quot;font-size: 10px;&quot;&gt;Наличие&lt;br&gt;в системе&lt;/span&gt;" style="text;html=1;strokeColor=none;fillColor=none;align=center;verticalAlign=middle;whiteSpace=wrap;rounded=0;rotation=0;" vertex="1" parent="1">
          <mxGeometry x="1770" y="925" width="140" height="30" as="geometry" />
        </mxCell>
        <mxCell id="V4f_2r2WSFjoRzTgrVU7-18" value="" style="endArrow=classic;html=1;rounded=0;exitX=1.001;exitY=0.57;exitDx=0;exitDy=0;exitPerimeter=0;" edge="1" parent="1" source="V4f_2r2WSFjoRzTgrVU7-8">
          <mxGeometry width="50" height="50" relative="1" as="geometry">
            <mxPoint x="2160" y="1190" as="sourcePoint" />
            <mxPoint x="2100" y="970" as="targetPoint" />
            <Array as="points">
              <mxPoint x="2100" y="1205" />
            </Array>
          </mxGeometry>
        </mxCell>
        <mxCell id="V4f_2r2WSFjoRzTgrVU7-19" value="" style="endArrow=classic;html=1;rounded=0;exitX=1.001;exitY=0.374;exitDx=0;exitDy=0;entryX=0.726;entryY=0.994;entryDx=0;entryDy=0;entryPerimeter=0;exitPerimeter=0;" edge="1" parent="1" source="V4f_2r2WSFjoRzTgrVU7-8" target="V4f_2r2WSFjoRzTgrVU7-15">
          <mxGeometry width="50" height="50" relative="1" as="geometry">
            <mxPoint x="1960" y="1130" as="sourcePoint" />
            <mxPoint x="2010" y="1080" as="targetPoint" />
            <Array as="points">
              <mxPoint x="2070" y="1190" />
            </Array>
          </mxGeometry>
        </mxCell>
        <mxCell id="V4f_2r2WSFjoRzTgrVU7-20" value="" style="endArrow=classic;html=1;rounded=0;exitX=0.998;exitY=0.08;exitDx=0;exitDy=0;entryX=0.5;entryY=1;entryDx=0;entryDy=0;exitPerimeter=0;" edge="1" parent="1" source="V4f_2r2WSFjoRzTgrVU7-8" target="V4f_2r2WSFjoRzTgrVU7-15">
          <mxGeometry width="50" height="50" relative="1" as="geometry">
            <mxPoint x="2030" y="1120" as="sourcePoint" />
            <mxPoint x="2080" y="1070" as="targetPoint" />
          </mxGeometry>
        </mxCell>
        <mxCell id="V4f_2r2WSFjoRzTgrVU7-24" value="" style="endArrow=classic;html=1;rounded=0;exitX=0.991;exitY=0.127;exitDx=0;exitDy=0;exitPerimeter=0;" edge="1" parent="1">
          <mxGeometry width="50" height="50" relative="1" as="geometry">
            <mxPoint x="2120" y="900.1600000000001" as="sourcePoint" />
            <mxPoint x="2290" y="900" as="targetPoint" />
          </mxGeometry>
        </mxCell>
        <mxCell id="V4f_2r2WSFjoRzTgrVU7-25" value="" style="endArrow=classic;html=1;rounded=0;exitX=0.991;exitY=0.127;exitDx=0;exitDy=0;exitPerimeter=0;" edge="1" parent="1">
          <mxGeometry width="50" height="50" relative="1" as="geometry">
            <mxPoint x="2120" y="920" as="sourcePoint" />
            <mxPoint x="2290" y="920" as="targetPoint" />
          </mxGeometry>
        </mxCell>
        <mxCell id="V4f_2r2WSFjoRzTgrVU7-26" value="" style="endArrow=classic;html=1;rounded=0;exitX=0.991;exitY=0.127;exitDx=0;exitDy=0;exitPerimeter=0;" edge="1" parent="1">
          <mxGeometry width="50" height="50" relative="1" as="geometry">
            <mxPoint x="2120" y="940.08" as="sourcePoint" />
            <mxPoint x="2290" y="940" as="targetPoint" />
          </mxGeometry>
        </mxCell>
        <mxCell id="V4f_2r2WSFjoRzTgrVU7-27" value="" style="endArrow=classic;html=1;rounded=0;exitX=0.991;exitY=0.127;exitDx=0;exitDy=0;exitPerimeter=0;" edge="1" parent="1">
          <mxGeometry width="50" height="50" relative="1" as="geometry">
            <mxPoint x="2120" y="960.1600000000001" as="sourcePoint" />
            <mxPoint x="2290" y="960" as="targetPoint" />
          </mxGeometry>
        </mxCell>
        <mxCell id="V4f_2r2WSFjoRzTgrVU7-30" value="&lt;span style=&quot;font-size: 10px;&quot;&gt;Идентификатор горничной&lt;/span&gt;" style="text;html=1;strokeColor=none;fillColor=none;align=center;verticalAlign=middle;whiteSpace=wrap;rounded=0;rotation=-90;" vertex="1" parent="1">
          <mxGeometry x="1990" y="1060" width="140" height="30" as="geometry" />
        </mxCell>
        <mxCell id="V4f_2r2WSFjoRzTgrVU7-31" value="&lt;span style=&quot;font-size: 10px;&quot;&gt;Идентификатор&amp;nbsp;повара&lt;/span&gt;" style="text;html=1;strokeColor=none;fillColor=none;align=center;verticalAlign=middle;whiteSpace=wrap;rounded=0;rotation=-90;" vertex="1" parent="1">
          <mxGeometry x="2060" y="1065" width="60" height="30" as="geometry" />
        </mxCell>
        <mxCell id="V4f_2r2WSFjoRzTgrVU7-32" value="&lt;span style=&quot;font-size: 10px;&quot;&gt;Идентификатор администратора&lt;/span&gt;" style="text;html=1;strokeColor=none;fillColor=none;align=center;verticalAlign=middle;whiteSpace=wrap;rounded=0;rotation=-90;" vertex="1" parent="1">
          <mxGeometry x="1940" y="1060" width="160" height="30" as="geometry" />
        </mxCell>
        <mxCell id="V4f_2r2WSFjoRzTgrVU7-33" value="&lt;span style=&quot;font-size: 10px;&quot;&gt;Идентификатор клиента&lt;/span&gt;" style="text;html=1;strokeColor=none;fillColor=none;align=center;verticalAlign=middle;whiteSpace=wrap;rounded=0;rotation=-90;" vertex="1" parent="1">
          <mxGeometry x="2030" y="1072.5" width="160" height="15" as="geometry" />
        </mxCell>
        <mxCell id="V4f_2r2WSFjoRzTgrVU7-34" value="" style="endArrow=classic;html=1;rounded=0;exitX=1;exitY=0.88;exitDx=0;exitDy=0;exitPerimeter=0;entryX=1;entryY=1;entryDx=0;entryDy=0;" edge="1" parent="1" source="V4f_2r2WSFjoRzTgrVU7-8" target="V4f_2r2WSFjoRzTgrVU7-15">
          <mxGeometry width="50" height="50" relative="1" as="geometry">
            <mxPoint x="2160" y="1190" as="sourcePoint" />
            <mxPoint x="2210" y="1140" as="targetPoint" />
            <Array as="points">
              <mxPoint x="2120" y="1230" />
            </Array>
          </mxGeometry>
        </mxCell>
        <mxCell id="V4f_2r2WSFjoRzTgrVU7-37" value="&lt;span style=&quot;font-size: 10px;&quot;&gt;Идентификатор администратора&lt;/span&gt;" style="text;html=1;strokeColor=none;fillColor=none;align=center;verticalAlign=middle;whiteSpace=wrap;rounded=0;rotation=0;" vertex="1" parent="1">
          <mxGeometry x="2120" y="880" width="160" height="30" as="geometry" />
        </mxCell>
        <mxCell id="V4f_2r2WSFjoRzTgrVU7-38" value="&lt;span style=&quot;font-size: 10px;&quot;&gt;Идентификатор горничной&lt;/span&gt;" style="text;html=1;strokeColor=none;fillColor=none;align=center;verticalAlign=middle;whiteSpace=wrap;rounded=0;rotation=0;" vertex="1" parent="1">
          <mxGeometry x="2130" y="910" width="140" height="10" as="geometry" />
        </mxCell>
        <mxCell id="V4f_2r2WSFjoRzTgrVU7-39" value="&lt;span style=&quot;font-size: 10px;&quot;&gt;Идентификатор&amp;nbsp;повара&lt;/span&gt;" style="text;html=1;strokeColor=none;fillColor=none;align=center;verticalAlign=middle;whiteSpace=wrap;rounded=0;rotation=0;" vertex="1" parent="1">
          <mxGeometry x="2170" y="930" width="60" height="7.5" as="geometry" />
        </mxCell>
        <mxCell id="V4f_2r2WSFjoRzTgrVU7-40" value="&lt;span style=&quot;font-size: 10px;&quot;&gt;Идентификатор клиента&lt;/span&gt;" style="text;html=1;strokeColor=none;fillColor=none;align=center;verticalAlign=middle;whiteSpace=wrap;rounded=0;rotation=0;" vertex="1" parent="1">
          <mxGeometry x="2120" y="950" width="160" height="5" as="geometry" />
        </mxCell>
        <mxCell id="V4f_2r2WSFjoRzTgrVU7-43" value="11" style="text;html=1;strokeColor=none;fillColor=none;align=center;verticalAlign=middle;whiteSpace=wrap;rounded=0;" vertex="1" parent="1">
          <mxGeometry x="1700" y="950" width="20" height="20" as="geometry" />
        </mxCell>
        <mxCell id="V4f_2r2WSFjoRzTgrVU7-44" value="15" style="text;html=1;strokeColor=none;fillColor=none;align=center;verticalAlign=middle;whiteSpace=wrap;rounded=0;" vertex="1" parent="1">
          <mxGeometry x="2010" y="1220" width="20" height="20" as="geometry" />
        </mxCell>
        <mxCell id="V4f_2r2WSFjoRzTgrVU7-45" value="14" style="text;html=1;strokeColor=none;fillColor=none;align=center;verticalAlign=middle;whiteSpace=wrap;rounded=0;" vertex="1" parent="1">
          <mxGeometry x="2100" y="950" width="20" height="20" as="geometry" />
        </mxCell>
        <mxCell id="V4f_2r2WSFjoRzTgrVU7-46" value="13" style="text;html=1;strokeColor=none;fillColor=none;align=center;verticalAlign=middle;whiteSpace=wrap;rounded=0;" vertex="1" parent="1">
          <mxGeometry x="1700" y="1200" width="20" height="20" as="geometry" />
        </mxCell>
        <mxCell id="V4f_2r2WSFjoRzTgrVU7-47" value="12" style="text;html=1;strokeColor=none;fillColor=none;align=center;verticalAlign=middle;whiteSpace=wrap;rounded=0;" vertex="1" parent="1">
          <mxGeometry x="1700" y="1087.5" width="20" height="20" as="geometry" />
        </mxCell>
      </root>
    </mxGraphModel>
  </diagram>
  <diagram id="30CSTh-y9SVbLgZfz-_A" name="Страница — 2">
    <mxGraphModel dx="5413" dy="2800" grid="1" gridSize="10" guides="1" tooltips="1" connect="1" arrows="1" fold="1" page="1" pageScale="1" pageWidth="3300" pageHeight="2339" math="0" shadow="0">
      <root>
        <mxCell id="0" />
        <mxCell id="1" parent="0" />
      </root>
    </mxGraphModel>
  </diagram>
</mxfile>
